<svg xmlns="http://www.w3.org/2000/svg" xmlns:xlink="http://www.w3.org/1999/xlink" width="1366" zoomAndPan="magnify" viewBox="0 0 1024.5 576" height="768" preserveAspectRatio="xMidYMid meet" version="1.0"><defs><clipPath id="24dc4e07e3"><path d="M 0 0.140625 L 1024 0.140625 L 1024 575.859375 L 0 575.859375 Z M 0 0.140625 " clip-rule="nonzero"/></clipPath><clipPath id="73bf49c6e8"><path d="M 336.273438 103.078125 L 688 103.078125 L 688 473.578125 L 336.273438 473.578125 Z M 336.273438 103.078125 " clip-rule="nonzero"/></clipPath></defs><g clip-path="url(#24dc4e07e3)"><path fill="#ffffff" d="M 0 0.140625 L 1024.5 0.140625 L 1024.5 576.140625 L 0 576.140625 Z M 0 0.140625 " fill-opacity="1" fill-rule="nonzero"/><path fill="#000000" d="M 0 0.140625 L 1024.5 0.140625 L 1024.5 576.140625 L 0 576.140625 Z M 0 0.140625 " fill-opacity="1" fill-rule="nonzero"/></g><g clip-path="url(#73bf49c6e8)"><path fill="#d5fc34" d="M 582.796875 441.984375 C 578.597656 443.035156 574.773438 445.289062 570.648438 446.566406 C 569.148438 447.015625 567.347656 447.316406 565.695312 447.617188 C 560.746094 448.59375 555.945312 450.019531 551.070312 451.222656 C 547.847656 451.972656 544.097656 451.523438 541.246094 454.300781 C 540.570312 454.976562 538.695312 452.125 537.347656 454.300781 C 529.621094 455.652344 521.898438 456.78125 514.171875 457.457031 C 507.871094 457.984375 501.648438 458.582031 495.273438 458.433594 C 485.597656 458.132812 475.996094 457.304688 466.320312 456.480469 C 464.671875 456.328125 463.171875 455.878906 461.898438 455.203125 C 459.722656 454.078125 457.320312 454.152344 455.222656 453.25 C 453.496094 452.5 452.371094 453.101562 451.171875 454.078125 C 450.722656 452.347656 449.222656 452.273438 447.796875 451.972656 C 445.546875 451.523438 443.820312 453.699219 441.496094 453.324219 C 441.421875 454.828125 439.996094 456.105469 440.597656 457.757812 C 440.746094 458.132812 441.046875 458.433594 441.121094 458.808594 C 441.273438 459.710938 441.496094 460.6875 440.597656 461.289062 C 439.996094 461.664062 439.320312 461.738281 438.722656 461.210938 C 437.820312 460.460938 437.296875 459.484375 437.972656 458.433594 C 438.722656 457.230469 438.347656 455.953125 438.496094 454.753906 C 438.871094 451.898438 437.445312 451.222656 435.195312 450.695312 C 432.195312 450.019531 431.898438 450.09375 430.996094 453.101562 C 430.847656 453.476562 430.621094 453.777344 430.171875 453.699219 C 429.796875 453.699219 429.347656 453.550781 429.273438 453.101562 C 428.972656 451.449219 428.820312 449.71875 429.195312 447.992188 C 429.570312 446.039062 428.445312 445.136719 426.648438 445.8125 C 424.171875 446.789062 422.222656 446.789062 420.570312 444.234375 C 419.746094 442.957031 415.546875 444.085938 414.871094 445.511719 C 414.570312 446.1875 414.871094 446.714844 415.546875 447.089844 C 416.523438 447.617188 417.121094 448.367188 415.996094 449.195312 C 414.796875 450.019531 414.648438 448.667969 413.972656 448.140625 C 412.398438 446.714844 411.871094 445.4375 413.445312 443.484375 C 414.648438 442.058594 413.671875 441.605469 412.171875 440.855469 C 409.472656 439.578125 406.171875 439.203125 404.070312 436.875 C 402.871094 435.597656 401.222656 437.925781 400.320312 435.898438 C 399.347656 433.71875 397.023438 432.894531 395.296875 431.390625 C 394.023438 430.265625 392.972656 428.988281 391.023438 428.910156 C 390.121094 428.835938 389.070312 428.3125 388.773438 427.035156 C 388.546875 425.832031 387.648438 424.929688 386.445312 424.554688 C 385.320312 424.105469 384.796875 423.351562 384.796875 422.152344 C 384.796875 420.800781 383.898438 419.898438 382.921875 419.296875 C 381.046875 418.167969 379.023438 416.96875 377.148438 416.140625 C 374.746094 415.089844 373.921875 413.289062 372.496094 411.632812 C 371.746094 410.734375 371.746094 409.003906 369.871094 409.457031 C 369.722656 409.53125 369.421875 409.230469 369.195312 409.15625 C 370.472656 406.828125 366.722656 406.074219 367.546875 403.671875 C 367.847656 402.695312 367.246094 401.34375 366.945312 400.214844 C 366.871094 399.917969 366.421875 399.691406 366.121094 399.464844 C 365.972656 399.765625 365.671875 400.140625 365.671875 400.441406 C 365.671875 402.320312 364.847656 401.945312 363.796875 401.191406 C 363.570312 401.042969 363.347656 400.894531 363.195312 400.742188 C 362.445312 399.917969 360.195312 401.117188 360.570312 399.316406 C 361.023438 397.210938 362.296875 399.164062 363.273438 399.238281 C 364.695312 399.316406 365.222656 398.488281 364.921875 397.210938 C 364.621094 395.785156 364.023438 394.28125 362.746094 393.53125 C 358.472656 391.277344 357.945312 386.84375 356.296875 383.015625 C 355.472656 381.0625 354.648438 379.183594 353.296875 377.53125 C 351.570312 375.351562 350.070312 373.097656 350.597656 370.019531 C 350.972656 367.765625 348.496094 366.339844 348.570312 364.085938 C 348.570312 363.257812 348.121094 362.207031 348.421875 361.378906 C 349.320312 359.277344 348.648438 357.699219 347.296875 356.046875 C 346.472656 355.070312 345.871094 354.167969 346.847656 352.589844 C 348.273438 350.335938 347.671875 347.632812 346.621094 345.378906 C 344.746094 341.324219 345.648438 337.34375 346.847656 333.511719 C 347.523438 331.40625 346.996094 329.453125 346.921875 327.5 C 346.695312 320.214844 345.496094 313.078125 345.871094 305.71875 C 346.023438 302.5625 345.121094 299.03125 345.796875 296.175781 C 346.546875 292.949219 344.222656 289.792969 346.398438 286.5625 C 347.296875 285.210938 347.445312 282.429688 347.296875 280.328125 C 347.070312 277.324219 348.421875 274.695312 348.648438 271.914062 C 348.871094 268.609375 351.570312 265.90625 350.523438 262.375 C 350.222656 261.398438 352.023438 260.722656 352.246094 259.292969 C 352.398438 257.941406 352.695312 256.515625 353.070312 255.238281 C 353.820312 252.609375 356.746094 250.503906 355.320312 247.273438 C 355.246094 247.125 355.921875 246.824219 356.070312 246.523438 C 356.746094 245.246094 358.023438 243.820312 357.796875 242.691406 C 357.273438 239.839844 358.320312 236.984375 357.046875 233.980469 C 355.398438 230.074219 354.347656 225.941406 355.398438 221.433594 C 356.371094 217.527344 354.722656 213.621094 354.273438 209.714844 C 354.046875 207.6875 352.773438 207.386719 350.746094 208.664062 C 348.347656 210.242188 345.945312 211.066406 343.023438 211.066406 C 339.945312 211.066406 338.523438 209.113281 337.320312 206.9375 C 336.648438 205.886719 336.273438 204.382812 336.347656 203.179688 C 336.648438 196.796875 336.648438 190.261719 341.671875 185.226562 C 342.121094 184.777344 342.570312 184.324219 343.023438 183.800781 C 345.195312 181.171875 346.246094 178.316406 345.871094 174.785156 C 345.496094 171.332031 346.921875 168.550781 348.945312 165.773438 C 351.046875 162.917969 353.445312 160.4375 355.695312 157.808594 C 356.445312 156.90625 357.796875 155.78125 359.597656 156.230469 C 360.570312 156.457031 361.921875 156.53125 362.671875 156.007812 C 363.570312 155.332031 364.023438 153.976562 364.695312 152.925781 C 365.296875 154.203125 366.121094 155.40625 367.695312 154.652344 C 369.273438 153.902344 370.171875 154.878906 371.222656 155.554688 C 371.296875 155.628906 371.445312 155.628906 371.597656 155.628906 C 376.621094 154.878906 382.171875 156.90625 386.671875 152.699219 C 387.945312 151.574219 390.046875 151.199219 391.472656 150.898438 C 394.546875 150.296875 396.722656 147.96875 399.945312 147.667969 C 402.945312 147.367188 405.945312 146.089844 408.796875 144.964844 C 413.296875 143.234375 417.945312 142.035156 422.523438 140.457031 C 426.421875 139.105469 430.546875 138.878906 434.445312 137.453125 C 436.546875 136.699219 438.496094 136.175781 436.171875 133.546875 C 435.796875 133.09375 435.945312 132.570312 436.398438 132.195312 C 436.546875 132.042969 436.921875 131.96875 437.148438 132.042969 C 437.671875 132.269531 437.972656 132.71875 437.820312 133.320312 C 437.445312 134.296875 436.847656 135.347656 438.347656 135.875 C 439.546875 136.324219 440.671875 136.324219 441.121094 134.671875 C 441.195312 134.296875 441.722656 133.996094 442.023438 134.371094 C 444.121094 136.550781 445.695312 135.273438 447.273438 133.546875 C 447.871094 132.945312 448.546875 133.394531 449.070312 133.621094 C 452.523438 135.125 455.972656 133.847656 459.121094 133.171875 C 462.121094 132.570312 465.121094 132.71875 468.046875 132.269531 C 471.195312 131.742188 474.347656 131.96875 477.496094 131.667969 C 484.398438 131.066406 491.222656 131.742188 498.046875 131.59375 C 499.171875 131.59375 500.445312 131.292969 501.421875 130.765625 C 502.921875 129.941406 504.121094 129.941406 505.546875 130.917969 C 506.820312 131.816406 508.320312 131.367188 509.671875 130.839844 C 518.972656 127.761719 528.648438 126.035156 537.421875 121.375 C 541.847656 119.046875 546.796875 117.921875 551.523438 116.644531 C 554.820312 115.742188 557.972656 114.390625 561.195312 113.414062 C 563.070312 112.8125 564.496094 111.3125 566.070312 110.183594 C 569.820312 107.628906 572.972656 104.324219 578.296875 104.175781 C 582.496094 104.097656 586.695312 104.777344 590.972656 103.875 C 593.070312 103.421875 595.996094 103.199219 596.746094 106.878906 C 596.972656 108.082031 598.695312 108.605469 600.046875 108.457031 C 602.972656 108.15625 604.847656 109.808594 606.421875 111.835938 C 607.320312 112.964844 607.921875 114.242188 609.722656 114.316406 C 610.773438 114.390625 611.222656 115.292969 611.222656 116.34375 C 611.222656 121 612.570312 125.28125 614.371094 129.488281 C 614.523438 129.789062 614.597656 130.464844 614.445312 130.617188 C 612.648438 132.417969 613.695312 134.671875 613.398438 136.699219 C 613.097656 138.503906 612.046875 140.304688 613.398438 142.109375 C 611.671875 142.257812 612.945312 145.789062 610.171875 144.964844 C 609.421875 144.738281 609.121094 145.488281 609.421875 146.242188 C 609.796875 147.066406 610.472656 147.667969 610.621094 148.644531 C 610.847656 149.921875 609.871094 150.148438 609.121094 150.523438 C 608.296875 150.898438 607.921875 150.597656 607.695312 149.847656 C 606.796875 146.917969 606.046875 148.570312 605.222656 149.921875 C 604.847656 150.597656 604.320312 151.199219 603.945312 151.875 C 602.296875 154.804688 602.671875 156.230469 605.671875 157.808594 C 611.671875 160.964844 616.921875 165.246094 622.695312 168.703125 C 626.296875 170.878906 628.695312 174.636719 632.820312 175.988281 C 633.347656 176.136719 632.898438 176.664062 633.046875 176.964844 C 634.398438 179.441406 636.273438 180.871094 639.273438 179.667969 L 639.195312 179.59375 C 637.621094 181.996094 637.546875 182.074219 640.023438 183.125 C 640.621094 183.347656 640.546875 183.726562 640.847656 184.027344 C 643.773438 187.632812 646.546875 191.238281 650.148438 194.242188 C 651.722656 195.519531 652.621094 198.296875 654.121094 200.175781 C 655.097656 201.453125 655.996094 202.878906 657.722656 201.003906 C 658.320312 200.402344 659.222656 200.550781 659.898438 201.152344 C 660.648438 201.902344 660.648438 202.730469 660.195312 203.632812 C 658.996094 206.183594 659.148438 206.109375 661.097656 208.816406 C 662.070312 210.167969 662.445312 211.894531 663.046875 213.472656 C 664.472656 216.925781 667.695312 219.40625 668.222656 223.386719 C 671.445312 224.363281 670.398438 227.519531 671.523438 229.546875 C 673.398438 232.851562 674.597656 236.457031 676.246094 239.839844 C 678.273438 244.121094 679.398438 248.777344 681.347656 253.132812 C 683.296875 257.566406 684.121094 262.222656 684.871094 266.882812 C 685.996094 273.867188 687.421875 280.929688 687.570312 287.988281 C 687.648438 290.394531 687.945312 293.023438 687.273438 295.5 C 686.972656 296.628906 686.972656 297.679688 687.195312 298.957031 C 687.570312 300.683594 688.023438 302.5625 686.671875 304.367188 C 685.996094 305.265625 686.148438 306.84375 686.148438 308.046875 C 686.222656 310.523438 687.273438 313.078125 685.246094 315.40625 C 684.496094 316.234375 686.070312 317.8125 685.546875 318.789062 C 684.421875 321.042969 685.847656 323.519531 684.570312 325.625 C 683.445312 327.425781 685.472656 330.054688 683.070312 331.632812 C 684.648438 332.535156 683.222656 333.511719 683.070312 334.488281 C 682.773438 335.914062 682.472656 337.34375 682.171875 338.695312 C 681.871094 340.046875 680.523438 341.847656 680.746094 342.449219 C 681.648438 345.53125 679.171875 347.183594 678.496094 349.511719 C 677.671875 352.367188 676.472656 355.070312 675.273438 357.773438 C 674.070312 360.480469 672.796875 363.332031 671.222656 365.738281 C 666.648438 372.648438 662.371094 379.785156 656.371094 385.570312 C 652.921875 388.875 650.371094 392.929688 646.773438 396.085938 C 643.773438 398.714844 640.847656 401.417969 638.597656 404.796875 C 638.070312 405.625 636.871094 405.773438 636.046875 406.375 C 631.921875 409.382812 631.320312 412.011719 634.546875 415.839844 C 636.046875 417.644531 636.871094 418.996094 634.621094 420.722656 C 633.347656 421.777344 633.945312 423.050781 634.398438 424.328125 C 634.847656 425.757812 634.320312 426.957031 632.898438 427.558594 C 631.996094 427.933594 631.097656 428.011719 630.273438 427.410156 C 629.296875 426.808594 629.597656 425.90625 629.820312 424.929688 C 630.570312 421.699219 630.273438 418.695312 627.796875 416.214844 C 627.421875 415.839844 627.421875 415.164062 626.746094 415.316406 C 626.148438 415.390625 625.996094 415.992188 625.921875 416.515625 C 625.773438 418.769531 625.320312 421.023438 625.621094 423.203125 C 626.148438 426.808594 625.921875 430.5625 627.570312 434.019531 C 628.398438 435.824219 628.398438 437.625 626.898438 439.128906 C 626.222656 439.804688 625.320312 440.253906 624.347656 439.878906 C 623.371094 439.578125 622.996094 438.753906 622.996094 437.699219 C 623.222656 433.417969 620.746094 429.664062 620.523438 425.457031 C 620.523438 424.929688 620.148438 424.480469 619.921875 424.027344 C 619.398438 422.976562 620.746094 421.25 619.320312 420.875 C 617.898438 420.5 616.398438 421.851562 615.796875 422.976562 C 614.898438 424.707031 612.871094 424.855469 611.898438 426.660156 C 611.148438 428.085938 608.445312 428.3125 606.722656 429.289062 C 604.921875 430.339844 602.597656 430.714844 601.996094 433.195312 C 601.921875 433.570312 601.695312 433.945312 601.171875 433.792969 C 597.273438 433.042969 594.871094 436.046875 591.871094 437.476562 C 589.398438 438.601562 587.148438 440.105469 584.296875 439.953125 C 582.945312 440.707031 583.097656 441.605469 582.796875 441.984375 Z M 638.222656 354.996094 C 639.722656 355.898438 640.097656 354.996094 640.695312 353.945312 C 643.171875 349.363281 645.945312 345.003906 647.972656 340.121094 C 650.296875 334.488281 651.273438 328.554688 652.320312 322.695312 C 653.070312 318.5625 653.671875 314.355469 654.046875 310.148438 C 654.421875 305.265625 654.195312 300.460938 654.570312 295.652344 C 654.796875 292.570312 654.046875 289.566406 654.273438 286.636719 C 654.570312 282.65625 654.722656 278.824219 653.296875 274.992188 C 651.796875 271.238281 651.796875 267.105469 650.371094 263.351562 C 648.195312 257.492188 645.195312 251.933594 643.621094 245.847656 C 643.398438 245.023438 642.945312 244.796875 642.195312 244.722656 C 641.371094 244.644531 641.222656 244.34375 641.371094 243.519531 C 641.597656 242.46875 640.921875 241.566406 640.546875 240.589844 C 636.496094 231.125 630.273438 223.011719 623.898438 214.972656 C 622.320312 212.945312 621.046875 210.769531 619.097656 208.890625 C 615.195312 204.984375 610.472656 201.902344 606.796875 197.773438 C 605.296875 196.042969 603.347656 194.765625 601.398438 193.640625 C 594.046875 189.285156 586.921875 184.476562 578.898438 181.246094 C 574.246094 179.367188 569.523438 177.789062 564.945312 175.539062 C 561.347656 173.808594 557.070312 173.058594 553.023438 172.082031 C 544.773438 169.976562 536.445312 167.648438 527.898438 166.523438 C 523.171875 165.921875 518.523438 164.34375 513.796875 165.996094 C 511.023438 166.972656 508.246094 168.550781 505.546875 169.152344 C 500.523438 170.277344 496.171875 172.984375 491.371094 174.484375 C 489.496094 175.085938 487.546875 176.0625 486.195312 177.714844 C 485.746094 178.242188 486.273438 179.367188 485.222656 179.667969 C 484.097656 179.96875 484.097656 178.992188 483.722656 178.316406 C 483.195312 177.339844 483.121094 178.542969 482.820312 178.617188 C 477.421875 180.871094 472.320312 183.574219 467.222656 186.277344 C 458.597656 190.859375 450.496094 196.421875 442.398438 201.828125 C 435.195312 206.636719 429.121094 212.945312 422.671875 218.804688 C 416.597656 224.289062 411.570312 230.675781 406.097656 236.609375 C 404.371094 238.410156 402.722656 240.289062 401.445312 242.46875 C 399.945312 245.097656 398.148438 247.5 396.195312 249.679688 C 395.445312 250.503906 394.472656 250.957031 393.273438 251.332031 C 389.898438 252.609375 386.820312 254.109375 385.398438 258.242188 C 382.773438 265.90625 381.121094 273.792969 379.546875 281.679688 C 379.246094 283.332031 378.421875 284.835938 378.421875 286.5625 C 378.570312 294.523438 377.746094 302.414062 377.746094 310.449219 C 377.746094 319.765625 379.695312 328.554688 381.945312 337.34375 C 383.222656 342.449219 385.097656 347.558594 387.421875 352.214844 C 389.523438 356.421875 391.472656 360.703125 393.648438 364.835938 C 395.898438 369.042969 398.070312 373.324219 401.296875 376.855469 C 402.570312 378.28125 403.773438 380.234375 406.320312 379.933594 C 407.222656 379.859375 406.171875 380.234375 406.171875 380.460938 C 406.246094 381.0625 405.722656 381.8125 406.246094 382.339844 C 407.070312 383.164062 407.671875 382.261719 408.273438 381.886719 C 409.246094 381.210938 410.222656 380.984375 411.121094 381.886719 C 412.097656 382.9375 411.496094 383.914062 410.523438 384.515625 C 408.871094 385.570312 409.472656 386.246094 410.445312 387.597656 C 415.398438 394.058594 421.773438 399.015625 427.921875 404.046875 C 432.945312 408.253906 438.496094 411.933594 444.421875 414.714844 C 448.171875 416.441406 451.695312 419.070312 456.121094 419.070312 C 462.046875 419.070312 467.597656 421.175781 473.296875 422.300781 C 476.070312 422.828125 478.546875 423.050781 481.320312 422.226562 C 485.070312 421.097656 488.898438 420.574219 492.570312 422.902344 C 493.546875 423.503906 494.898438 424.179688 496.320312 423.578125 C 497.597656 422.976562 499.246094 423.128906 499.921875 421.550781 C 501.046875 422.753906 502.320312 422.601562 503.671875 422.074219 C 505.171875 421.476562 506.746094 421.925781 508.246094 422 C 511.546875 422.074219 514.546875 422.675781 517.398438 424.40625 C 517.996094 424.78125 518.972656 424.707031 519.722656 424.480469 C 523.398438 423.503906 527.148438 423.351562 530.820312 422.527344 C 535.621094 421.550781 540.347656 420.421875 545.070312 419.296875 C 552.496094 417.492188 559.847656 415.917969 567.046875 413.289062 C 573.871094 410.734375 580.472656 408.027344 586.472656 403.820312 C 587.898438 402.84375 589.921875 402.621094 591.347656 401.492188 C 595.773438 398.113281 599.972656 394.507812 604.246094 391.050781 C 606.273438 389.398438 608.148438 387.746094 609.648438 385.570312 C 610.320312 384.59375 610.921875 383.617188 610.023438 382.789062 C 608.296875 381.136719 608.070312 379.632812 608.296875 377.15625 C 608.523438 374.75 607.246094 372.199219 609.496094 370.019531 C 609.648438 369.867188 609.570312 369.492188 609.648438 369.269531 C 610.171875 367.390625 610.398438 365.585938 612.121094 364.085938 C 612.796875 363.558594 614.371094 361.679688 612.570312 360.027344 C 611.972656 359.503906 612.648438 359.425781 613.171875 359.351562 C 615.347656 359.050781 617.445312 357.925781 618.273438 356.121094 C 618.722656 355.144531 619.472656 355.296875 620.148438 355.144531 C 620.820312 354.996094 621.496094 355.144531 622.246094 354.996094 C 625.546875 354.242188 628.695312 353.117188 632.222656 353.417969 C 634.695312 353.644531 636.121094 355.820312 638.222656 354.996094 Z M 366.945312 209.039062 C 366.945312 210.84375 366.722656 212.195312 367.023438 213.398438 C 367.398438 215.273438 367.847656 217.527344 370.023438 218.054688 C 372.195312 218.578125 373.320312 216.550781 374.148438 215.050781 C 376.246094 210.992188 379.320312 207.6875 382.320312 204.457031 C 386.371094 200.101562 389.898438 195.21875 394.695312 191.460938 C 397.097656 189.585938 399.347656 186.957031 401.445312 184.402344 C 401.820312 183.949219 402.796875 183.875 402.273438 182.972656 C 401.898438 182.296875 401.148438 182.222656 400.546875 182.296875 C 398.445312 182.523438 396.496094 183.425781 394.773438 184.476562 C 391.398438 186.578125 387.722656 187.707031 383.820312 188.382812 C 379.695312 189.132812 375.496094 190.261719 372.570312 193.789062 C 371.972656 194.542969 370.996094 194.617188 370.246094 195.066406 C 368.597656 196.042969 366.648438 197.398438 367.171875 199.648438 C 367.847656 203.03125 366.648438 206.261719 366.945312 209.039062 Z M 359.898438 222.863281 C 359.371094 225.039062 360.273438 227.96875 360.648438 230.972656 C 360.722656 231.800781 360.273438 233.078125 361.695312 233.078125 C 362.898438 233.078125 363.648438 232.25 363.648438 231.050781 C 363.648438 228.570312 364.695312 226.242188 364.621094 223.6875 C 364.621094 222.035156 364.398438 220.757812 363.195312 219.40625 C 361.695312 217.753906 360.570312 215.351562 361.171875 213.246094 C 362.296875 209.191406 361.097656 205.507812 360.496094 201.679688 C 360.421875 201.152344 360.648438 200.175781 359.671875 200.25 C 359.070312 200.328125 359.070312 201.003906 359.070312 201.527344 C 359.070312 205.058594 358.472656 208.664062 360.273438 211.96875 C 360.796875 212.945312 360.945312 213.996094 360.570312 214.972656 C 359.898438 217.304688 360.273438 219.707031 359.898438 222.863281 Z M 433.621094 468.046875 C 432.648438 467.371094 431.972656 466.996094 430.546875 467.671875 C 427.621094 468.949219 430.546875 470.601562 430.097656 471.953125 C 429.871094 472.628906 430.546875 473.457031 431.523438 473.308594 C 431.671875 473.308594 431.820312 473.230469 431.898438 473.15625 C 433.097656 472.105469 431.597656 471.355469 431.523438 470.378906 C 431.445312 468.726562 433.847656 469.851562 433.847656 468.347656 C 433.773438 468.273438 433.773438 468.125 433.621094 468.046875 Z M 659.898438 173.960938 C 659.148438 174.035156 658.621094 174.636719 659.070312 175.3125 C 659.746094 176.511719 659.070312 177.191406 658.320312 177.941406 C 657.945312 178.316406 656.371094 177.039062 657.046875 178.765625 C 657.421875 179.667969 658.171875 179.441406 658.996094 179.367188 C 662.070312 178.992188 659.820312 176.214844 661.171875 175.011719 C 661.171875 174.183594 660.648438 173.808594 659.898438 173.960938 Z M 440.746094 112.136719 C 439.398438 112.136719 438.945312 113.039062 439.097656 114.164062 C 439.171875 115.140625 439.621094 116.117188 440.746094 115.96875 C 441.871094 115.816406 442.472656 114.917969 442.695312 113.789062 C 442.320312 112.886719 441.871094 112.136719 440.746094 112.136719 Z M 638.898438 179.96875 C 639.347656 179.367188 640.171875 179.820312 640.695312 179.519531 C 641.371094 179.144531 642.796875 179.144531 642.121094 177.789062 C 641.746094 177.039062 640.996094 176.214844 639.945312 176.511719 C 638.820312 176.8125 638.597656 177.566406 639.046875 178.617188 C 639.195312 179.066406 639.347656 179.59375 638.898438 179.96875 Z M 447.121094 462.867188 C 447.046875 463.84375 447.945312 464.066406 448.695312 464.292969 C 449.597656 464.59375 450.195312 464.066406 450.421875 463.242188 C 450.648438 462.113281 449.972656 461.589844 448.996094 461.289062 C 448.023438 461.289062 447.273438 461.890625 447.121094 462.867188 Z M 360.722656 416.441406 C 359.671875 416.441406 358.546875 416.96875 358.320312 418.019531 C 358.171875 418.921875 359.296875 418.996094 360.046875 418.996094 C 360.796875 419.070312 361.621094 419.070312 361.695312 417.945312 C 361.472656 417.34375 361.398438 416.515625 360.722656 416.441406 Z M 458.222656 120.101562 C 457.398438 120.101562 457.246094 120.851562 457.320312 121.527344 C 457.398438 122.277344 457.773438 122.730469 458.597656 122.652344 C 459.347656 122.652344 459.871094 122.351562 459.871094 121.453125 C 459.722656 120.625 459.046875 120.175781 458.222656 120.101562 Z M 440.671875 118.972656 C 440.597656 118.222656 440.070312 117.847656 439.398438 117.996094 C 438.871094 118.070312 438.496094 118.445312 438.421875 118.972656 C 438.421875 119.722656 438.796875 120.101562 439.546875 120.175781 C 440.222656 120.101562 440.746094 119.722656 440.671875 118.972656 Z M 366.121094 418.019531 C 366.722656 417.871094 367.546875 418.019531 367.320312 417.042969 C 367.246094 416.515625 366.796875 416.140625 366.273438 416.066406 C 365.445312 415.992188 365.070312 416.441406 365.070312 417.195312 C 364.996094 417.792969 365.148438 418.394531 365.148438 418.996094 C 365.148438 418.320312 365.671875 418.167969 366.121094 418.019531 Z M 656.972656 197.546875 C 656.445312 197.472656 655.921875 197.695312 655.847656 198.296875 C 655.773438 198.824219 656.070312 199.351562 656.597656 199.425781 C 657.273438 199.5 657.722656 199.050781 657.945312 198.449219 C 658.023438 197.695312 657.496094 197.621094 656.972656 197.546875 Z M 426.121094 135.347656 C 425.972656 134.671875 425.445312 134.222656 424.695312 134.449219 C 424.171875 134.597656 423.945312 135.125 424.097656 135.648438 C 424.246094 136.25 424.695312 136.398438 425.222656 136.324219 C 425.746094 136.25 426.195312 135.875 426.121094 135.347656 Z M 355.621094 406.828125 C 355.023438 406.828125 354.722656 407.203125 354.648438 407.804688 C 354.570312 408.253906 354.871094 408.554688 355.320312 408.554688 C 355.921875 408.554688 356.222656 408.179688 356.296875 407.652344 C 356.296875 407.128906 356.070312 406.828125 355.621094 406.828125 Z M 435.121094 458.359375 C 434.445312 458.433594 434.371094 459.035156 434.371094 459.558594 C 434.371094 460.011719 434.148438 460.761719 434.898438 460.761719 C 435.722656 460.761719 435.648438 459.859375 435.945312 459.335938 C 436.023438 458.734375 435.648438 458.28125 435.121094 458.359375 Z M 500.972656 123.328125 C 501.496094 123.253906 501.871094 122.878906 501.871094 122.277344 C 501.871094 121.828125 501.496094 121.601562 501.121094 121.675781 C 500.523438 121.753906 500.222656 122.054688 500.222656 122.652344 C 500.296875 123.105469 500.523438 123.40625 500.972656 123.328125 Z M 492.421875 125.734375 C 492.496094 125.28125 492.273438 124.980469 491.820312 124.90625 C 491.296875 124.832031 490.773438 125.058594 490.847656 125.734375 C 490.847656 126.109375 491.222656 126.410156 491.296875 126.484375 C 492.121094 126.410156 492.347656 126.109375 492.421875 125.734375 Z M 445.097656 113.339844 C 444.871094 113.414062 444.722656 113.714844 444.648438 113.863281 C 444.570312 114.242188 444.796875 114.617188 445.246094 114.617188 C 445.621094 114.617188 445.847656 114.242188 445.847656 113.863281 C 445.773438 113.488281 445.546875 113.1875 445.097656 113.339844 Z M 425.671875 449.269531 C 425.820312 449.644531 426.195312 449.792969 426.570312 449.570312 C 426.722656 449.496094 426.871094 449.117188 426.871094 448.96875 C 426.796875 448.59375 426.570312 448.292969 426.347656 448.367188 C 425.746094 448.519531 425.523438 448.894531 425.671875 449.269531 Z M 612.195312 159.835938 C 611.972656 159.761719 611.746094 159.613281 611.523438 159.613281 C 611.296875 159.613281 611.070312 159.6875 610.847656 159.761719 C 611.070312 159.835938 611.296875 159.914062 611.523438 159.988281 C 611.671875 159.914062 611.898438 159.914062 612.195312 159.835938 Z M 665.296875 216.027344 L 665.445312 216.027344 L 665.371094 215.800781 Z M 345.046875 324.421875 C 345.121094 324.496094 345.195312 324.648438 345.273438 324.648438 C 345.347656 324.648438 345.496094 324.496094 345.570312 324.421875 C 345.496094 324.347656 345.347656 324.273438 345.273438 324.195312 C 345.195312 324.273438 345.121094 324.347656 345.046875 324.421875 Z M 582.796875 441.984375 C 582.945312 442.058594 583.023438 442.734375 583.320312 442.132812 C 583.097656 442.132812 582.945312 442.058594 582.796875 441.984375 C 582.722656 442.058594 582.796875 441.984375 582.796875 441.984375 Z M 454.171875 454.226562 C 454.171875 454.300781 454.246094 454.378906 454.320312 454.453125 C 454.398438 454.378906 454.546875 454.300781 454.546875 454.226562 C 454.546875 454.152344 454.472656 454.078125 454.398438 454 C 454.320312 454.078125 454.171875 454.152344 454.171875 454.226562 Z M 483.121094 182.296875 C 481.921875 183.425781 480.945312 183.949219 479.371094 183.5 C 478.996094 183.425781 478.695312 183.875 478.695312 184.25 C 478.621094 184.777344 479.070312 185.078125 479.371094 184.925781 C 480.945312 183.800781 481.847656 184.925781 483.046875 185.753906 C 484.472656 186.730469 486.046875 185.679688 486.046875 184.101562 C 485.972656 182.371094 484.246094 181.246094 483.121094 182.296875 Z M 623.148438 238.5625 C 623.597656 239.085938 623.445312 239.761719 623.597656 240.363281 C 623.746094 241.566406 624.421875 242.394531 625.621094 242.09375 C 626.671875 241.867188 627.570312 241.039062 627.195312 239.839844 C 626.898438 238.785156 626.222656 237.960938 624.871094 238.488281 C 624.273438 238.710938 623.746094 239.085938 623.148438 238.5625 Z M 613.621094 223.761719 C 612.871094 223.761719 612.273438 223.988281 612.421875 224.816406 C 612.496094 225.566406 612.871094 226.390625 613.847656 226.316406 C 614.445312 226.242188 614.820312 225.566406 614.898438 224.890625 C 614.820312 224.0625 614.371094 223.761719 613.621094 223.761719 Z M 629.148438 235.480469 C 628.621094 235.480469 628.097656 235.707031 628.023438 236.308594 C 628.023438 236.910156 628.320312 237.285156 628.921875 237.359375 C 629.523438 237.433594 629.898438 237.132812 629.972656 236.535156 C 629.972656 236.007812 629.820312 235.558594 629.148438 235.480469 Z M 623.070312 238.5625 C 622.847656 238.261719 622.621094 237.960938 622.398438 237.660156 C 622.171875 237.285156 621.722656 237.210938 621.421875 237.359375 C 621.273438 237.433594 621.121094 237.808594 621.121094 237.960938 C 621.273438 238.410156 621.648438 238.410156 622.023438 238.410156 C 622.398438 238.410156 622.773438 238.488281 623.070312 238.5625 C 623.148438 238.5625 623.070312 238.5625 623.070312 238.5625 Z M 373.621094 201.152344 C 373.921875 201.152344 374.070312 200.851562 373.847656 200.625 C 373.695312 200.476562 373.398438 200.328125 373.246094 200.328125 C 373.097656 200.402344 373.023438 200.703125 372.945312 200.925781 C 373.171875 201.003906 373.398438 201.152344 373.621094 201.152344 Z M 373.621094 201.152344 " fill-opacity="1" fill-rule="nonzero"/></g></svg>