<svg xmlns="http://www.w3.org/2000/svg" xmlns:xlink="http://www.w3.org/1999/xlink" width="1366" zoomAndPan="magnify" viewBox="0 0 1024.5 576" height="768" preserveAspectRatio="xMidYMid meet" version="1.0"><defs><g/><clipPath id="62b5556a1e"><path d="M 0 0.140625 L 1024 0.140625 L 1024 575.859375 L 0 575.859375 Z M 0 0.140625 " clip-rule="nonzero"/></clipPath><clipPath id="30d06301c9"><path d="M 21.742188 244.996094 L 107.808594 244.996094 L 107.808594 331.058594 L 21.742188 331.058594 Z M 21.742188 244.996094 " clip-rule="nonzero"/></clipPath><clipPath id="2032dc1de6"><path d="M 57.082031 271.621094 L 72.269531 271.621094 L 72.269531 304.527344 L 57.082031 304.527344 Z M 57.082031 271.621094 " clip-rule="nonzero"/></clipPath><clipPath id="e6843a0be0"><path d="M 523.96875 244.996094 L 610.03125 244.996094 L 610.03125 331.058594 L 523.96875 331.058594 Z M 523.96875 244.996094 " clip-rule="nonzero"/></clipPath><clipPath id="dc58862c91"><path d="M 552.113281 272.214844 L 585.023438 272.214844 L 585.023438 305.121094 L 552.113281 305.121094 Z M 552.113281 272.214844 " clip-rule="nonzero"/></clipPath></defs><g clip-path="url(#62b5556a1e)"><path fill="#ffffff" d="M 0 0.140625 L 1024.5 0.140625 L 1024.5 583.640625 L 0 583.640625 Z M 0 0.140625 " fill-opacity="1" fill-rule="nonzero"/><path fill="#ffffff" d="M 0 0.140625 L 1024.5 0.140625 L 1024.5 576.140625 L 0 576.140625 Z M 0 0.140625 " fill-opacity="1" fill-rule="nonzero"/><path fill="#000000" d="M 0 0.140625 L 1024.5 0.140625 L 1024.5 576.140625 L 0 576.140625 Z M 0 0.140625 " fill-opacity="1" fill-rule="nonzero"/></g><g clip-path="url(#30d06301c9)"><path fill="#d5fc34" d="M 21.742188 244.996094 L 107.808594 244.996094 L 107.808594 331.058594 L 21.742188 331.058594 Z M 21.742188 244.996094 " fill-opacity="1" fill-rule="nonzero"/></g><g clip-path="url(#2032dc1de6)"><path fill="#000000" d="M 68.769531 277.09375 L 72.273438 277.09375 L 72.273438 271.691406 L 67.796875 271.691406 L 67.796875 271.710938 C 61.914062 271.929688 60.707031 275.304688 60.601562 278.859375 L 60.589844 278.859375 L 60.589844 282.609375 L 57.085938 282.609375 L 57.085938 288.015625 L 60.589844 288.015625 L 60.589844 304.457031 L 66.878906 304.457031 L 66.878906 288.015625 L 71.382812 288.015625 L 72.273438 282.609375 L 66.878906 282.609375 L 66.878906 279.257812 C 66.878906 278.0625 67.65625 277.09375 68.769531 277.09375 Z M 68.769531 277.09375 " fill-opacity="1" fill-rule="nonzero"/></g><g fill="#ffffff" fill-opacity="1"><g transform="translate(142.708799, 301.88305)"><g><path d="M 21.9375 0 L 18.90625 0 L 18.90625 -13.84375 C 18.90625 -14.757812 18.695312 -15.507812 18.28125 -16.09375 C 17.863281 -16.675781 17.203125 -16.96875 16.296875 -16.96875 C 15.441406 -16.96875 14.75 -16.648438 14.21875 -16.015625 C 13.6875 -15.378906 13.421875 -14.398438 13.421875 -13.078125 L 13.421875 0 L 10.390625 0 L 10.390625 -14 C 10.390625 -14.863281 10.15625 -15.570312 9.6875 -16.125 C 9.21875 -16.6875 8.59375 -16.96875 7.8125 -16.96875 C 6.882812 -16.96875 6.164062 -16.628906 5.65625 -15.953125 C 5.15625 -15.273438 4.90625 -14.394531 4.90625 -13.3125 L 4.90625 0 L 1.875 0 L 1.875 -19.296875 L 4.90625 -19.296875 L 4.90625 -17.203125 L 5.375 -17.203125 C 5.707031 -18.109375 6.195312 -18.773438 6.84375 -19.203125 C 7.488281 -19.628906 8.253906 -19.84375 9.140625 -19.84375 C 10.078125 -19.84375 10.847656 -19.59375 11.453125 -19.09375 C 12.066406 -18.601562 12.488281 -17.972656 12.71875 -17.203125 L 13.1875 -17.203125 C 14.070312 -18.960938 15.472656 -19.84375 17.390625 -19.84375 C 18.835938 -19.84375 19.957031 -19.378906 20.75 -18.453125 C 21.539062 -17.535156 21.9375 -16.335938 21.9375 -14.859375 Z M 21.9375 0 "/></g></g></g><g fill="#ffffff" fill-opacity="1"><g transform="translate(166.509328, 301.88305)"><g><path d="M 9.375 -25.0625 C 9.375 -25.8125 9.640625 -26.453125 10.171875 -26.984375 C 10.703125 -27.515625 11.34375 -27.78125 12.09375 -27.78125 C 12.851562 -27.78125 13.5 -27.515625 14.03125 -26.984375 C 14.5625 -26.453125 14.828125 -25.8125 14.828125 -25.0625 C 14.828125 -24.300781 14.5625 -23.65625 14.03125 -23.125 C 13.5 -22.59375 12.851562 -22.328125 12.09375 -22.328125 C 11.34375 -22.328125 10.703125 -22.59375 10.171875 -23.125 C 9.640625 -23.65625 9.375 -24.300781 9.375 -25.0625 Z M 3.859375 -2.796875 L 10.625 -2.796875 L 10.625 -16.5 L 4.546875 -16.5 L 4.546875 -19.296875 L 13.65625 -19.296875 L 13.65625 -2.796875 L 19.953125 -2.796875 L 19.953125 0 L 3.859375 0 Z M 3.859375 -2.796875 "/></g></g></g><g fill="#ffffff" fill-opacity="1"><g transform="translate(190.309857, 301.88305)"><g><path d="M 21.4375 -6.84375 C 21.226562 -5.78125 20.867188 -4.796875 20.359375 -3.890625 C 19.859375 -2.984375 19.21875 -2.195312 18.4375 -1.53125 C 17.664062 -0.875 16.757812 -0.363281 15.71875 0 C 14.675781 0.363281 13.519531 0.546875 12.25 0.546875 C 10.90625 0.546875 9.628906 0.328125 8.421875 -0.109375 C 7.210938 -0.554688 6.15625 -1.203125 5.25 -2.046875 C 4.34375 -2.890625 3.625 -3.921875 3.09375 -5.140625 C 2.5625 -6.359375 2.296875 -7.757812 2.296875 -9.34375 L 2.296875 -9.796875 C 2.296875 -11.359375 2.5625 -12.757812 3.09375 -14 C 3.625 -15.25 4.34375 -16.300781 5.25 -17.15625 C 6.15625 -18.007812 7.210938 -18.671875 8.421875 -19.140625 C 9.628906 -19.609375 10.90625 -19.84375 12.25 -19.84375 C 13.46875 -19.84375 14.597656 -19.660156 15.640625 -19.296875 C 16.679688 -18.929688 17.59375 -18.414062 18.375 -17.75 C 19.164062 -17.09375 19.816406 -16.3125 20.328125 -15.40625 C 20.835938 -14.5 21.179688 -13.515625 21.359375 -12.453125 L 18.328125 -11.75 C 18.242188 -12.425781 18.050781 -13.082031 17.75 -13.71875 C 17.457031 -14.351562 17.054688 -14.910156 16.546875 -15.390625 C 16.046875 -15.867188 15.429688 -16.25 14.703125 -16.53125 C 13.984375 -16.820312 13.140625 -16.96875 12.171875 -16.96875 C 11.242188 -16.96875 10.367188 -16.789062 9.546875 -16.4375 C 8.734375 -16.082031 8.015625 -15.585938 7.390625 -14.953125 C 6.765625 -14.316406 6.273438 -13.554688 5.921875 -12.671875 C 5.578125 -11.796875 5.40625 -10.835938 5.40625 -9.796875 L 5.40625 -9.34375 C 5.40625 -8.25 5.578125 -7.265625 5.921875 -6.390625 C 6.273438 -5.523438 6.765625 -4.796875 7.390625 -4.203125 C 8.015625 -3.609375 8.738281 -3.144531 9.5625 -2.8125 C 10.394531 -2.488281 11.289062 -2.328125 12.25 -2.328125 C 13.207031 -2.328125 14.039062 -2.476562 14.75 -2.78125 C 15.46875 -3.082031 16.082031 -3.472656 16.59375 -3.953125 C 17.101562 -4.429688 17.503906 -4.976562 17.796875 -5.59375 C 18.097656 -6.21875 18.300781 -6.867188 18.40625 -7.546875 Z M 21.4375 -6.84375 "/></g></g></g><g fill="#ffffff" fill-opacity="1"><g transform="translate(214.110386, 301.88305)"><g><path d="M 2.296875 -19.296875 L 9.296875 -19.296875 L 9.296875 -16.734375 L 9.765625 -16.734375 C 10.253906 -17.796875 10.953125 -18.578125 11.859375 -19.078125 C 12.773438 -19.585938 13.816406 -19.84375 14.984375 -19.84375 C 16.921875 -19.84375 18.484375 -19.207031 19.671875 -17.9375 C 20.867188 -16.664062 21.507812 -14.8125 21.59375 -12.375 L 18.40625 -11.90625 C 18.40625 -13.695312 17.972656 -14.988281 17.109375 -15.78125 C 16.253906 -16.570312 15.207031 -16.96875 13.96875 -16.96875 C 13.164062 -16.96875 12.472656 -16.8125 11.890625 -16.5 C 11.304688 -16.1875 10.816406 -15.753906 10.421875 -15.203125 C 10.035156 -14.660156 9.75 -14.023438 9.5625 -13.296875 C 9.382812 -12.578125 9.296875 -11.800781 9.296875 -10.96875 L 9.296875 -2.796875 L 14.203125 -2.796875 L 14.203125 0 L 1.828125 0 L 1.828125 -2.796875 L 6.265625 -2.796875 L 6.265625 -16.5 L 2.296875 -16.5 Z M 2.296875 -19.296875 "/></g></g></g><g fill="#ffffff" fill-opacity="1"><g transform="translate(237.910916, 301.88305)"><g><path d="M 21.59375 -9.421875 C 21.59375 -7.804688 21.328125 -6.382812 20.796875 -5.15625 C 20.265625 -3.925781 19.554688 -2.890625 18.671875 -2.046875 C 17.796875 -1.203125 16.765625 -0.554688 15.578125 -0.109375 C 14.398438 0.328125 13.175781 0.546875 11.90625 0.546875 C 10.601562 0.546875 9.367188 0.328125 8.203125 -0.109375 C 7.035156 -0.554688 6.007812 -1.203125 5.125 -2.046875 C 4.25 -2.890625 3.546875 -3.925781 3.015625 -5.15625 C 2.484375 -6.382812 2.21875 -7.804688 2.21875 -9.421875 L 2.21875 -9.875 C 2.21875 -11.457031 2.484375 -12.863281 3.015625 -14.09375 C 3.546875 -15.332031 4.257812 -16.378906 5.15625 -17.234375 C 6.050781 -18.085938 7.082031 -18.734375 8.25 -19.171875 C 9.414062 -19.617188 10.632812 -19.84375 11.90625 -19.84375 C 13.175781 -19.84375 14.394531 -19.617188 15.5625 -19.171875 C 16.726562 -18.734375 17.757812 -18.085938 18.65625 -17.234375 C 19.550781 -16.378906 20.265625 -15.332031 20.796875 -14.09375 C 21.328125 -12.863281 21.59375 -11.457031 21.59375 -9.875 Z M 11.90625 -2.328125 C 12.84375 -2.328125 13.703125 -2.488281 14.484375 -2.8125 C 15.273438 -3.144531 15.96875 -3.617188 16.5625 -4.234375 C 17.164062 -4.859375 17.632812 -5.601562 17.96875 -6.46875 C 18.3125 -7.34375 18.484375 -8.328125 18.484375 -9.421875 L 18.484375 -9.875 C 18.484375 -10.914062 18.3125 -11.867188 17.96875 -12.734375 C 17.632812 -13.609375 17.164062 -14.351562 16.5625 -14.96875 C 15.96875 -15.59375 15.269531 -16.082031 14.46875 -16.4375 C 13.664062 -16.789062 12.8125 -16.96875 11.90625 -16.96875 C 11 -16.96875 10.140625 -16.789062 9.328125 -16.4375 C 8.523438 -16.082031 7.828125 -15.59375 7.234375 -14.96875 C 6.640625 -14.351562 6.171875 -13.609375 5.828125 -12.734375 C 5.492188 -11.867188 5.328125 -10.914062 5.328125 -9.875 L 5.328125 -9.421875 C 5.328125 -8.328125 5.492188 -7.34375 5.828125 -6.46875 C 6.171875 -5.601562 6.640625 -4.859375 7.234375 -4.234375 C 7.828125 -3.617188 8.519531 -3.144531 9.3125 -2.8125 C 10.101562 -2.488281 10.96875 -2.328125 11.90625 -2.328125 Z M 11.90625 -2.328125 "/></g></g></g><g fill="#ffffff" fill-opacity="1"><g transform="translate(261.711445, 301.88305)"><g><path d="M 5.71875 0 L 2.6875 0 L 2.6875 -27.234375 L 5.71875 -27.234375 L 5.71875 -16.265625 L 6.1875 -16.265625 C 6.863281 -17.429688 7.796875 -18.316406 8.984375 -18.921875 C 10.179688 -19.535156 11.476562 -19.84375 12.875 -19.84375 C 14.070312 -19.84375 15.203125 -19.617188 16.265625 -19.171875 C 17.328125 -18.734375 18.265625 -18.097656 19.078125 -17.265625 C 19.898438 -16.441406 20.550781 -15.421875 21.03125 -14.203125 C 21.507812 -12.984375 21.75 -11.59375 21.75 -10.03125 L 21.75 -9.265625 C 21.75 -7.679688 21.515625 -6.28125 21.046875 -5.0625 C 20.578125 -3.84375 19.929688 -2.816406 19.109375 -1.984375 C 18.296875 -1.148438 17.34375 -0.519531 16.25 -0.09375 C 15.164062 0.332031 14.015625 0.546875 12.796875 0.546875 C 12.171875 0.546875 11.535156 0.472656 10.890625 0.328125 C 10.242188 0.179688 9.628906 -0.0351562 9.046875 -0.328125 C 8.460938 -0.628906 7.921875 -0.992188 7.421875 -1.421875 C 6.929688 -1.847656 6.519531 -2.359375 6.1875 -2.953125 L 5.71875 -2.953125 Z M 12.171875 -2.328125 C 13.109375 -2.328125 13.960938 -2.488281 14.734375 -2.8125 C 15.515625 -3.144531 16.195312 -3.609375 16.78125 -4.203125 C 17.363281 -4.796875 17.816406 -5.519531 18.140625 -6.375 C 18.472656 -7.238281 18.640625 -8.203125 18.640625 -9.265625 L 18.640625 -10.03125 C 18.640625 -11.070312 18.472656 -12.015625 18.140625 -12.859375 C 17.816406 -13.703125 17.363281 -14.425781 16.78125 -15.03125 C 16.195312 -15.644531 15.507812 -16.117188 14.71875 -16.453125 C 13.9375 -16.796875 13.085938 -16.96875 12.171875 -16.96875 C 11.265625 -16.96875 10.421875 -16.789062 9.640625 -16.4375 C 8.867188 -16.082031 8.191406 -15.59375 7.609375 -14.96875 C 7.023438 -14.351562 6.5625 -13.609375 6.21875 -12.734375 C 5.882812 -11.867188 5.71875 -10.914062 5.71875 -9.875 L 5.71875 -9.421875 C 5.71875 -8.347656 5.882812 -7.378906 6.21875 -6.515625 C 6.5625 -5.648438 7.023438 -4.90625 7.609375 -4.28125 C 8.191406 -3.65625 8.867188 -3.171875 9.640625 -2.828125 C 10.421875 -2.492188 11.265625 -2.328125 12.171875 -2.328125 Z M 12.171875 -2.328125 "/></g></g></g><g fill="#ffffff" fill-opacity="1"><g transform="translate(285.511974, 301.88305)"><g><path d="M 17.15625 -19.296875 L 20.1875 -19.296875 L 20.1875 0 L 17.15625 0 L 17.15625 -3.5 L 16.6875 -3.5 C 16.0625 -2.257812 15.242188 -1.273438 14.234375 -0.546875 C 13.222656 0.179688 11.941406 0.546875 10.390625 0.546875 C 9.328125 0.546875 8.347656 0.367188 7.453125 0.015625 C 6.554688 -0.328125 5.789062 -0.847656 5.15625 -1.546875 C 4.519531 -2.253906 4.023438 -3.125 3.671875 -4.15625 C 3.328125 -5.195312 3.15625 -6.40625 3.15625 -7.78125 L 3.15625 -19.296875 L 6.1875 -19.296875 L 6.1875 -8.171875 C 6.1875 -6.148438 6.597656 -4.671875 7.421875 -3.734375 C 8.253906 -2.796875 9.53125 -2.328125 11.25 -2.328125 C 13.082031 -2.328125 14.523438 -2.957031 15.578125 -4.21875 C 16.628906 -5.476562 17.15625 -7.160156 17.15625 -9.265625 Z M 17.15625 -19.296875 "/></g></g></g><g fill="#ffffff" fill-opacity="1"><g transform="translate(309.312503, 301.88305)"><g><path d="M 7.390625 -14.3125 C 7.390625 -13.382812 7.785156 -12.671875 8.578125 -12.171875 C 9.367188 -11.679688 10.816406 -11.359375 12.921875 -11.203125 C 15.171875 -11.023438 16.882812 -10.488281 18.0625 -9.59375 C 19.25 -8.695312 19.84375 -7.394531 19.84375 -5.6875 L 19.84375 -5.453125 C 19.84375 -4.515625 19.65625 -3.675781 19.28125 -2.9375 C 18.90625 -2.195312 18.382812 -1.566406 17.71875 -1.046875 C 17.0625 -0.523438 16.257812 -0.128906 15.3125 0.140625 C 14.363281 0.410156 13.332031 0.546875 12.21875 0.546875 C 10.707031 0.546875 9.414062 0.347656 8.34375 -0.046875 C 7.269531 -0.453125 6.375 -0.984375 5.65625 -1.640625 C 4.945312 -2.304688 4.410156 -3.0625 4.046875 -3.90625 C 3.679688 -4.75 3.472656 -5.597656 3.421875 -6.453125 L 6.296875 -7.15625 C 6.429688 -5.675781 7.003906 -4.488281 8.015625 -3.59375 C 9.023438 -2.695312 10.375 -2.25 12.0625 -2.25 C 13.488281 -2.25 14.632812 -2.523438 15.5 -3.078125 C 16.375 -3.640625 16.8125 -4.429688 16.8125 -5.453125 C 16.8125 -6.535156 16.378906 -7.3125 15.515625 -7.78125 C 14.660156 -8.25 13.273438 -8.546875 11.359375 -8.671875 C 9.128906 -8.828125 7.414062 -9.347656 6.21875 -10.234375 C 5.03125 -11.117188 4.4375 -12.398438 4.4375 -14.078125 L 4.4375 -14.3125 C 4.4375 -15.21875 4.628906 -16.015625 5.015625 -16.703125 C 5.410156 -17.390625 5.9375 -17.96875 6.59375 -18.4375 C 7.257812 -18.90625 8.003906 -19.253906 8.828125 -19.484375 C 9.660156 -19.722656 10.53125 -19.84375 11.4375 -19.84375 C 12.707031 -19.84375 13.820312 -19.664062 14.78125 -19.3125 C 15.738281 -18.96875 16.539062 -18.515625 17.1875 -17.953125 C 17.84375 -17.398438 18.34375 -16.757812 18.6875 -16.03125 C 19.039062 -15.300781 19.269531 -14.570312 19.375 -13.84375 L 16.5 -13.15625 C 16.363281 -14.394531 15.859375 -15.363281 14.984375 -16.0625 C 14.117188 -16.769531 12.988281 -17.125 11.59375 -17.125 C 11.050781 -17.125 10.523438 -17.0625 10.015625 -16.9375 C 9.515625 -16.820312 9.066406 -16.644531 8.671875 -16.40625 C 8.285156 -16.175781 7.972656 -15.882812 7.734375 -15.53125 C 7.503906 -15.1875 7.390625 -14.78125 7.390625 -14.3125 Z M 7.390625 -14.3125 "/></g></g></g><g fill="#ffffff" fill-opacity="1"><g transform="translate(333.113032, 301.88305)"><g><path d="M 6.421875 0 L 3.390625 0 L 3.390625 -19.296875 L 6.421875 -19.296875 L 6.421875 -16.03125 L 6.890625 -16.03125 C 8.078125 -18.570312 10.148438 -19.84375 13.109375 -19.84375 C 15.335938 -19.84375 17.113281 -19.144531 18.4375 -17.75 C 19.757812 -16.363281 20.421875 -14.285156 20.421875 -11.515625 L 20.421875 0 L 17.390625 0 L 17.390625 -10.890625 C 17.390625 -12.910156 16.9375 -14.425781 16.03125 -15.4375 C 15.125 -16.457031 13.890625 -16.96875 12.328125 -16.96875 C 10.492188 -16.96875 9.050781 -16.335938 8 -15.078125 C 6.945312 -13.816406 6.421875 -12.132812 6.421875 -10.03125 Z M 6.421875 0 "/></g></g></g><g fill="#ffffff" fill-opacity="1"><g transform="translate(356.913561, 301.88305)"><g><path d="M 9.375 -25.0625 C 9.375 -25.8125 9.640625 -26.453125 10.171875 -26.984375 C 10.703125 -27.515625 11.34375 -27.78125 12.09375 -27.78125 C 12.851562 -27.78125 13.5 -27.515625 14.03125 -26.984375 C 14.5625 -26.453125 14.828125 -25.8125 14.828125 -25.0625 C 14.828125 -24.300781 14.5625 -23.65625 14.03125 -23.125 C 13.5 -22.59375 12.851562 -22.328125 12.09375 -22.328125 C 11.34375 -22.328125 10.703125 -22.59375 10.171875 -23.125 C 9.640625 -23.65625 9.375 -24.300781 9.375 -25.0625 Z M 3.859375 -2.796875 L 10.625 -2.796875 L 10.625 -16.5 L 4.546875 -16.5 L 4.546875 -19.296875 L 13.65625 -19.296875 L 13.65625 -2.796875 L 19.953125 -2.796875 L 19.953125 0 L 3.859375 0 Z M 3.859375 -2.796875 "/></g></g></g><g fill="#ffffff" fill-opacity="1"><g transform="translate(380.714091, 301.88305)"><g><path d="M 2.71875 -19.296875 L 8.796875 -19.296875 L 8.796875 -27.234375 L 11.828125 -27.234375 L 11.828125 -19.296875 L 19.296875 -19.296875 L 19.296875 -16.5 L 11.828125 -16.5 L 11.828125 -3.96875 C 11.828125 -3.1875 12.175781 -2.796875 12.875 -2.796875 L 18.359375 -2.796875 L 18.359375 0 L 11.78125 0 C 10.90625 0 10.1875 -0.285156 9.625 -0.859375 C 9.070312 -1.429688 8.796875 -2.15625 8.796875 -3.03125 L 8.796875 -16.5 L 2.71875 -16.5 Z M 2.71875 -19.296875 "/></g></g></g><g fill="#ffffff" fill-opacity="1"><g transform="translate(404.51462, 301.88305)"><g><path d="M 8.359375 -11.28125 L 9.03125 -11.28125 L 16.375 -19.296875 L 20.109375 -19.296875 L 20.109375 -19.0625 L 12.09375 -10.234375 L 12.09375 -9.53125 L 21.046875 -0.234375 L 21.046875 0 L 17.3125 0 L 9.109375 -8.484375 L 8.359375 -8.484375 L 8.359375 0 L 5.328125 0 L 5.328125 -27.234375 L 8.359375 -27.234375 Z M 8.359375 -11.28125 "/></g></g></g><g fill="#ffffff" fill-opacity="1"><g transform="translate(428.315149, 301.88305)"><g><path d="M 8.359375 -11.28125 L 9.03125 -11.28125 L 16.375 -19.296875 L 20.109375 -19.296875 L 20.109375 -19.0625 L 12.09375 -10.234375 L 12.09375 -9.53125 L 21.046875 -0.234375 L 21.046875 0 L 17.3125 0 L 9.109375 -8.484375 L 8.359375 -8.484375 L 8.359375 0 L 5.328125 0 L 5.328125 -27.234375 L 8.359375 -27.234375 Z M 8.359375 -11.28125 "/></g></g></g><g fill="#ffffff" fill-opacity="1"><g transform="translate(452.115678, 301.88305)"><g><path d="M 2.296875 -19.296875 L 9.296875 -19.296875 L 9.296875 -16.734375 L 9.765625 -16.734375 C 10.253906 -17.796875 10.953125 -18.578125 11.859375 -19.078125 C 12.773438 -19.585938 13.816406 -19.84375 14.984375 -19.84375 C 16.921875 -19.84375 18.484375 -19.207031 19.671875 -17.9375 C 20.867188 -16.664062 21.507812 -14.8125 21.59375 -12.375 L 18.40625 -11.90625 C 18.40625 -13.695312 17.972656 -14.988281 17.109375 -15.78125 C 16.253906 -16.570312 15.207031 -16.96875 13.96875 -16.96875 C 13.164062 -16.96875 12.472656 -16.8125 11.890625 -16.5 C 11.304688 -16.1875 10.816406 -15.753906 10.421875 -15.203125 C 10.035156 -14.660156 9.75 -14.023438 9.5625 -13.296875 C 9.382812 -12.578125 9.296875 -11.800781 9.296875 -10.96875 L 9.296875 -2.796875 L 14.203125 -2.796875 L 14.203125 0 L 1.828125 0 L 1.828125 -2.796875 L 6.265625 -2.796875 L 6.265625 -16.5 L 2.296875 -16.5 Z M 2.296875 -19.296875 "/></g></g></g><g clip-path="url(#e6843a0be0)"><path fill="#d5fc34" d="M 523.96875 244.996094 L 610.03125 244.996094 L 610.03125 331.058594 L 523.96875 331.058594 Z M 523.96875 244.996094 " fill-opacity="1" fill-rule="nonzero"/></g><g clip-path="url(#dc58862c91)"><path fill="#000000" d="M 568.570312 275.179688 C 572.960938 275.179688 573.484375 275.195312 575.214844 275.277344 C 576.820312 275.347656 577.691406 275.617188 578.273438 275.84375 C 579.039062 276.140625 579.589844 276.496094 580.164062 277.074219 C 580.738281 277.648438 581.097656 278.195312 581.394531 278.964844 C 581.621094 279.542969 581.886719 280.417969 581.960938 282.019531 C 582.039062 283.753906 582.058594 284.277344 582.058594 288.667969 C 582.058594 293.0625 582.039062 293.582031 581.960938 295.316406 C 581.886719 296.921875 581.621094 297.792969 581.394531 298.371094 C 581.097656 299.140625 580.738281 299.6875 580.164062 300.265625 C 579.589844 300.839844 579.039062 301.195312 578.273438 301.496094 C 577.691406 301.722656 576.820312 301.988281 575.214844 302.0625 C 573.484375 302.140625 572.960938 302.15625 568.570312 302.15625 C 564.175781 302.15625 563.65625 302.140625 561.921875 302.0625 C 560.316406 301.988281 559.445312 301.722656 558.863281 301.496094 C 558.097656 301.195312 557.546875 300.839844 556.972656 300.265625 C 556.398438 299.6875 556.039062 299.140625 555.742188 298.371094 C 555.515625 297.792969 555.25 296.921875 555.175781 295.316406 C 555.097656 293.582031 555.078125 293.0625 555.078125 288.667969 C 555.078125 284.277344 555.097656 283.753906 555.175781 282.019531 C 555.25 280.417969 555.515625 279.542969 555.742188 278.964844 C 556.039062 278.195312 556.398438 277.648438 556.972656 277.074219 C 557.546875 276.496094 558.097656 276.140625 558.863281 275.84375 C 559.445312 275.617188 560.316406 275.347656 561.921875 275.277344 C 563.65625 275.195312 564.175781 275.179688 568.570312 275.179688 M 568.570312 272.214844 C 564.101562 272.214844 563.539062 272.234375 561.785156 272.3125 C 560.035156 272.394531 558.835938 272.671875 557.789062 273.078125 C 556.707031 273.5 555.792969 274.0625 554.875 274.976562 C 553.960938 275.890625 553.398438 276.808594 552.980469 277.890625 C 552.570312 278.9375 552.292969 280.132812 552.214844 281.886719 C 552.132812 283.640625 552.113281 284.199219 552.113281 288.667969 C 552.113281 293.136719 552.132812 293.695312 552.214844 295.453125 C 552.292969 297.203125 552.570312 298.398438 552.980469 299.445312 C 553.398438 300.527344 553.960938 301.445312 554.875 302.359375 C 555.792969 303.273438 556.707031 303.835938 557.789062 304.257812 C 558.835938 304.664062 560.035156 304.941406 561.785156 305.023438 C 563.539062 305.101562 564.101562 305.121094 568.570312 305.121094 C 573.035156 305.121094 573.597656 305.101562 575.351562 305.023438 C 577.105469 304.941406 578.300781 304.664062 579.34375 304.257812 C 580.425781 303.835938 581.34375 303.273438 582.261719 302.359375 C 583.175781 301.445312 583.738281 300.527344 584.15625 299.445312 C 584.5625 298.398438 584.84375 297.203125 584.921875 295.453125 C 585.003906 293.695312 585.023438 293.136719 585.023438 288.667969 C 585.023438 284.199219 585.003906 283.640625 584.921875 281.886719 C 584.84375 280.132812 584.5625 278.9375 584.15625 277.890625 C 583.738281 276.808594 583.175781 275.890625 582.261719 274.976562 C 581.34375 274.0625 580.425781 273.5 579.34375 273.078125 C 578.300781 272.671875 577.105469 272.394531 575.351562 272.3125 C 573.597656 272.234375 573.035156 272.214844 568.570312 272.214844 Z M 568.570312 280.21875 C 563.902344 280.21875 560.121094 284.003906 560.121094 288.667969 C 560.121094 293.335938 563.902344 297.117188 568.570312 297.117188 C 573.234375 297.117188 577.015625 293.335938 577.015625 288.667969 C 577.015625 284.003906 573.234375 280.21875 568.570312 280.21875 Z M 568.570312 294.152344 C 565.539062 294.152344 563.085938 291.695312 563.085938 288.667969 C 563.085938 285.640625 565.539062 283.183594 568.570312 283.183594 C 571.597656 283.183594 574.054688 285.640625 574.054688 288.667969 C 574.054688 291.695312 571.597656 294.152344 568.570312 294.152344 Z M 579.324219 279.886719 C 579.324219 280.976562 578.441406 281.859375 577.351562 281.859375 C 576.261719 281.859375 575.378906 280.976562 575.378906 279.886719 C 575.378906 278.796875 576.261719 277.910156 577.351562 277.910156 C 578.441406 277.910156 579.324219 278.796875 579.324219 279.886719 Z M 579.324219 279.886719 " fill-opacity="1" fill-rule="nonzero"/></g><g fill="#ffffff" fill-opacity="1"><g transform="translate(644.250071, 304.342548)"><g><path d="M 22.015625 0 L 18.984375 0 L 18.984375 -13.90625 C 18.984375 -14.8125 18.773438 -15.554688 18.359375 -16.140625 C 17.941406 -16.734375 17.273438 -17.03125 16.359375 -17.03125 C 15.503906 -17.03125 14.804688 -16.707031 14.265625 -16.0625 C 13.734375 -15.425781 13.46875 -14.445312 13.46875 -13.125 L 13.46875 0 L 10.421875 0 L 10.421875 -14.0625 C 10.421875 -14.914062 10.1875 -15.625 9.71875 -16.1875 C 9.25 -16.75 8.625 -17.03125 7.84375 -17.03125 C 6.90625 -17.03125 6.179688 -16.691406 5.671875 -16.015625 C 5.171875 -15.335938 4.921875 -14.453125 4.921875 -13.359375 L 4.921875 0 L 1.875 0 L 1.875 -19.375 L 4.921875 -19.375 L 4.921875 -17.265625 L 5.390625 -17.265625 C 5.722656 -18.171875 6.210938 -18.835938 6.859375 -19.265625 C 7.515625 -19.691406 8.285156 -19.90625 9.171875 -19.90625 C 10.109375 -19.90625 10.882812 -19.660156 11.5 -19.171875 C 12.113281 -18.679688 12.535156 -18.046875 12.765625 -17.265625 L 13.234375 -17.265625 C 14.117188 -19.023438 15.523438 -19.90625 17.453125 -19.90625 C 18.910156 -19.90625 20.035156 -19.441406 20.828125 -18.515625 C 21.617188 -17.597656 22.015625 -16.398438 22.015625 -14.921875 Z M 22.015625 0 "/></g></g></g><g fill="#ffffff" fill-opacity="1"><g transform="translate(668.149206, 304.342548)"><g><path d="M 9.40625 -25.140625 C 9.40625 -25.898438 9.671875 -26.546875 10.203125 -27.078125 C 10.742188 -27.609375 11.390625 -27.875 12.140625 -27.875 C 12.898438 -27.875 13.546875 -27.609375 14.078125 -27.078125 C 14.609375 -26.546875 14.875 -25.898438 14.875 -25.140625 C 14.875 -24.390625 14.609375 -23.742188 14.078125 -23.203125 C 13.546875 -22.671875 12.898438 -22.40625 12.140625 -22.40625 C 11.390625 -22.40625 10.742188 -22.671875 10.203125 -23.203125 C 9.671875 -23.742188 9.40625 -24.390625 9.40625 -25.140625 Z M 3.859375 -2.8125 L 10.65625 -2.8125 L 10.65625 -16.5625 L 4.5625 -16.5625 L 4.5625 -19.375 L 13.703125 -19.375 L 13.703125 -2.8125 L 20.03125 -2.8125 L 20.03125 0 L 3.859375 0 Z M 3.859375 -2.8125 "/></g></g></g><g fill="#ffffff" fill-opacity="1"><g transform="translate(692.048341, 304.342548)"><g><path d="M 21.515625 -6.875 C 21.304688 -5.800781 20.945312 -4.804688 20.4375 -3.890625 C 19.925781 -2.984375 19.28125 -2.195312 18.5 -1.53125 C 17.726562 -0.875 16.820312 -0.363281 15.78125 0 C 14.738281 0.363281 13.578125 0.546875 12.296875 0.546875 C 10.941406 0.546875 9.660156 0.328125 8.453125 -0.109375 C 7.242188 -0.554688 6.179688 -1.203125 5.265625 -2.046875 C 4.359375 -2.890625 3.632812 -3.921875 3.09375 -5.140625 C 2.5625 -6.367188 2.296875 -7.78125 2.296875 -9.375 L 2.296875 -9.84375 C 2.296875 -11.40625 2.5625 -12.8125 3.09375 -14.0625 C 3.632812 -15.3125 4.359375 -16.363281 5.265625 -17.21875 C 6.179688 -18.082031 7.242188 -18.742188 8.453125 -19.203125 C 9.660156 -19.671875 10.941406 -19.90625 12.296875 -19.90625 C 13.523438 -19.90625 14.660156 -19.722656 15.703125 -19.359375 C 16.742188 -19.003906 17.660156 -18.492188 18.453125 -17.828125 C 19.242188 -17.160156 19.890625 -16.367188 20.390625 -15.453125 C 20.898438 -14.546875 21.25 -13.5625 21.4375 -12.5 L 18.390625 -11.796875 C 18.316406 -12.472656 18.128906 -13.128906 17.828125 -13.765625 C 17.523438 -14.398438 17.117188 -14.957031 16.609375 -15.4375 C 16.109375 -15.925781 15.492188 -16.3125 14.765625 -16.59375 C 14.035156 -16.882812 13.1875 -17.03125 12.21875 -17.03125 C 11.28125 -17.03125 10.398438 -16.851562 9.578125 -16.5 C 8.765625 -16.144531 8.046875 -15.648438 7.421875 -15.015625 C 6.796875 -14.378906 6.304688 -13.617188 5.953125 -12.734375 C 5.597656 -11.847656 5.421875 -10.882812 5.421875 -9.84375 L 5.421875 -9.375 C 5.421875 -8.28125 5.597656 -7.296875 5.953125 -6.421875 C 6.304688 -5.546875 6.796875 -4.804688 7.421875 -4.203125 C 8.046875 -3.609375 8.773438 -3.148438 9.609375 -2.828125 C 10.441406 -2.503906 11.335938 -2.34375 12.296875 -2.34375 C 13.265625 -2.34375 14.101562 -2.488281 14.8125 -2.78125 C 15.53125 -3.082031 16.144531 -3.472656 16.65625 -3.953125 C 17.164062 -4.441406 17.566406 -5 17.859375 -5.625 C 18.160156 -6.25 18.363281 -6.898438 18.46875 -7.578125 Z M 21.515625 -6.875 "/></g></g></g><g fill="#ffffff" fill-opacity="1"><g transform="translate(715.947476, 304.342548)"><g><path d="M 2.296875 -19.375 L 9.328125 -19.375 L 9.328125 -16.796875 L 9.796875 -16.796875 C 10.296875 -17.859375 11 -18.640625 11.90625 -19.140625 C 12.820312 -19.648438 13.863281 -19.90625 15.03125 -19.90625 C 16.988281 -19.90625 18.5625 -19.269531 19.75 -18 C 20.945312 -16.726562 21.585938 -14.867188 21.671875 -12.421875 L 18.46875 -11.953125 C 18.46875 -13.742188 18.035156 -15.035156 17.171875 -15.828125 C 16.316406 -16.628906 15.265625 -17.03125 14.015625 -17.03125 C 13.210938 -17.03125 12.515625 -16.875 11.921875 -16.5625 C 11.335938 -16.25 10.847656 -15.816406 10.453125 -15.265625 C 10.066406 -14.722656 9.78125 -14.085938 9.59375 -13.359375 C 9.414062 -12.628906 9.328125 -11.847656 9.328125 -11.015625 L 9.328125 -2.8125 L 14.25 -2.8125 L 14.25 0 L 1.828125 0 L 1.828125 -2.8125 L 6.28125 -2.8125 L 6.28125 -16.5625 L 2.296875 -16.5625 Z M 2.296875 -19.375 "/></g></g></g><g fill="#ffffff" fill-opacity="1"><g transform="translate(739.846611, 304.342548)"><g><path d="M 21.671875 -9.453125 C 21.671875 -7.835938 21.398438 -6.410156 20.859375 -5.171875 C 20.328125 -3.929688 19.617188 -2.890625 18.734375 -2.046875 C 17.859375 -1.203125 16.828125 -0.554688 15.640625 -0.109375 C 14.453125 0.328125 13.222656 0.546875 11.953125 0.546875 C 10.648438 0.546875 9.410156 0.328125 8.234375 -0.109375 C 7.066406 -0.554688 6.039062 -1.203125 5.15625 -2.046875 C 4.269531 -2.890625 3.554688 -3.929688 3.015625 -5.171875 C 2.484375 -6.410156 2.21875 -7.835938 2.21875 -9.453125 L 2.21875 -9.921875 C 2.21875 -11.503906 2.484375 -12.914062 3.015625 -14.15625 C 3.554688 -15.394531 4.273438 -16.441406 5.171875 -17.296875 C 6.066406 -18.160156 7.097656 -18.8125 8.265625 -19.25 C 9.441406 -19.6875 10.671875 -19.90625 11.953125 -19.90625 C 13.222656 -19.90625 14.441406 -19.6875 15.609375 -19.25 C 16.785156 -18.8125 17.820312 -18.160156 18.71875 -17.296875 C 19.613281 -16.441406 20.328125 -15.394531 20.859375 -14.15625 C 21.398438 -12.914062 21.671875 -11.503906 21.671875 -9.921875 Z M 11.953125 -2.34375 C 12.890625 -2.34375 13.753906 -2.503906 14.546875 -2.828125 C 15.335938 -3.148438 16.03125 -3.625 16.625 -4.25 C 17.226562 -4.875 17.695312 -5.625 18.03125 -6.5 C 18.375 -7.375 18.546875 -8.359375 18.546875 -9.453125 L 18.546875 -9.921875 C 18.546875 -10.960938 18.375 -11.914062 18.03125 -12.78125 C 17.695312 -13.65625 17.226562 -14.40625 16.625 -15.03125 C 16.03125 -15.65625 15.328125 -16.144531 14.515625 -16.5 C 13.710938 -16.851562 12.859375 -17.03125 11.953125 -17.03125 C 11.035156 -17.03125 10.171875 -16.851562 9.359375 -16.5 C 8.554688 -16.144531 7.851562 -15.65625 7.25 -15.03125 C 6.65625 -14.40625 6.1875 -13.65625 5.84375 -12.78125 C 5.507812 -11.914062 5.34375 -10.960938 5.34375 -9.921875 L 5.34375 -9.453125 C 5.34375 -8.359375 5.507812 -7.375 5.84375 -6.5 C 6.1875 -5.625 6.65625 -4.875 7.25 -4.25 C 7.851562 -3.625 8.550781 -3.148438 9.34375 -2.828125 C 10.144531 -2.503906 11.015625 -2.34375 11.953125 -2.34375 Z M 11.953125 -2.34375 "/></g></g></g><g fill="#ffffff" fill-opacity="1"><g transform="translate(763.745746, 304.342548)"><g><path d="M 5.734375 0 L 2.6875 0 L 2.6875 -27.328125 L 5.734375 -27.328125 L 5.734375 -16.328125 L 6.203125 -16.328125 C 6.878906 -17.492188 7.816406 -18.378906 9.015625 -18.984375 C 10.210938 -19.597656 11.515625 -19.90625 12.921875 -19.90625 C 14.117188 -19.90625 15.25 -19.6875 16.3125 -19.25 C 17.382812 -18.8125 18.328125 -18.175781 19.140625 -17.34375 C 19.960938 -16.507812 20.613281 -15.476562 21.09375 -14.25 C 21.582031 -13.03125 21.828125 -11.640625 21.828125 -10.078125 L 21.828125 -9.296875 C 21.828125 -7.703125 21.59375 -6.289062 21.125 -5.0625 C 20.65625 -3.84375 20.007812 -2.816406 19.1875 -1.984375 C 18.375 -1.148438 17.421875 -0.519531 16.328125 -0.09375 C 15.234375 0.332031 14.070312 0.546875 12.84375 0.546875 C 12.21875 0.546875 11.578125 0.472656 10.921875 0.328125 C 10.273438 0.179688 9.660156 -0.0351562 9.078125 -0.328125 C 8.492188 -0.628906 7.953125 -0.992188 7.453125 -1.421875 C 6.960938 -1.847656 6.546875 -2.363281 6.203125 -2.96875 L 5.734375 -2.96875 Z M 12.21875 -2.34375 C 13.15625 -2.34375 14.015625 -2.503906 14.796875 -2.828125 C 15.578125 -3.148438 16.257812 -3.609375 16.84375 -4.203125 C 17.4375 -4.804688 17.894531 -5.535156 18.21875 -6.390625 C 18.539062 -7.253906 18.703125 -8.222656 18.703125 -9.296875 L 18.703125 -10.078125 C 18.703125 -11.117188 18.539062 -12.0625 18.21875 -12.90625 C 17.894531 -13.75 17.4375 -14.476562 16.84375 -15.09375 C 16.257812 -15.707031 15.570312 -16.179688 14.78125 -16.515625 C 13.988281 -16.859375 13.132812 -17.03125 12.21875 -17.03125 C 11.3125 -17.03125 10.46875 -16.851562 9.6875 -16.5 C 8.90625 -16.144531 8.21875 -15.65625 7.625 -15.03125 C 7.039062 -14.40625 6.578125 -13.65625 6.234375 -12.78125 C 5.898438 -11.914062 5.734375 -10.960938 5.734375 -9.921875 L 5.734375 -9.453125 C 5.734375 -8.378906 5.898438 -7.40625 6.234375 -6.53125 C 6.578125 -5.664062 7.039062 -4.921875 7.625 -4.296875 C 8.21875 -3.671875 8.90625 -3.1875 9.6875 -2.84375 C 10.46875 -2.507812 11.3125 -2.34375 12.21875 -2.34375 Z M 12.21875 -2.34375 "/></g></g></g><g fill="#ffffff" fill-opacity="1"><g transform="translate(787.644881, 304.342548)"><g><path d="M 17.21875 -19.375 L 20.265625 -19.375 L 20.265625 0 L 17.21875 0 L 17.21875 -3.515625 L 16.75 -3.515625 C 16.125 -2.265625 15.300781 -1.273438 14.28125 -0.546875 C 13.269531 0.179688 11.984375 0.546875 10.421875 0.546875 C 9.359375 0.546875 8.375 0.367188 7.46875 0.015625 C 6.570312 -0.328125 5.804688 -0.847656 5.171875 -1.546875 C 4.535156 -2.253906 4.039062 -3.128906 3.6875 -4.171875 C 3.332031 -5.210938 3.15625 -6.425781 3.15625 -7.8125 L 3.15625 -19.375 L 6.203125 -19.375 L 6.203125 -8.203125 C 6.203125 -6.171875 6.617188 -4.6875 7.453125 -3.75 C 8.285156 -2.8125 9.5625 -2.34375 11.28125 -2.34375 C 13.132812 -2.34375 14.585938 -2.972656 15.640625 -4.234375 C 16.691406 -5.492188 17.21875 -7.179688 17.21875 -9.296875 Z M 17.21875 -19.375 "/></g></g></g><g fill="#ffffff" fill-opacity="1"><g transform="translate(811.544016, 304.342548)"><g><path d="M 7.421875 -14.375 C 7.421875 -13.4375 7.816406 -12.71875 8.609375 -12.21875 C 9.398438 -11.726562 10.851562 -11.40625 12.96875 -11.25 C 15.226562 -11.0625 16.945312 -10.519531 18.125 -9.625 C 19.3125 -8.726562 19.90625 -7.421875 19.90625 -5.703125 L 19.90625 -5.46875 C 19.90625 -4.53125 19.71875 -3.6875 19.34375 -2.9375 C 18.96875 -2.195312 18.445312 -1.566406 17.78125 -1.046875 C 17.125 -0.523438 16.316406 -0.128906 15.359375 0.140625 C 14.410156 0.410156 13.378906 0.546875 12.265625 0.546875 C 10.753906 0.546875 9.457031 0.347656 8.375 -0.046875 C 7.289062 -0.453125 6.390625 -0.988281 5.671875 -1.65625 C 4.960938 -2.320312 4.425781 -3.078125 4.0625 -3.921875 C 3.695312 -4.765625 3.488281 -5.617188 3.4375 -6.484375 L 6.328125 -7.1875 C 6.453125 -5.695312 7.019531 -4.503906 8.03125 -3.609375 C 9.050781 -2.710938 10.410156 -2.265625 12.109375 -2.265625 C 13.535156 -2.265625 14.6875 -2.539062 15.5625 -3.09375 C 16.4375 -3.65625 16.875 -4.445312 16.875 -5.46875 C 16.875 -6.5625 16.441406 -7.34375 15.578125 -7.8125 C 14.722656 -8.28125 13.332031 -8.578125 11.40625 -8.703125 C 9.164062 -8.859375 7.445312 -9.378906 6.25 -10.265625 C 5.050781 -11.148438 4.453125 -12.441406 4.453125 -14.140625 L 4.453125 -14.375 C 4.453125 -15.28125 4.644531 -16.078125 5.03125 -16.765625 C 5.425781 -17.460938 5.953125 -18.046875 6.609375 -18.515625 C 7.273438 -18.984375 8.023438 -19.332031 8.859375 -19.5625 C 9.691406 -19.789062 10.566406 -19.90625 11.484375 -19.90625 C 12.753906 -19.90625 13.867188 -19.726562 14.828125 -19.375 C 15.796875 -19.03125 16.601562 -18.578125 17.25 -18.015625 C 17.90625 -17.460938 18.410156 -16.820312 18.765625 -16.09375 C 19.117188 -15.363281 19.34375 -14.632812 19.4375 -13.90625 L 16.5625 -13.203125 C 16.425781 -14.453125 15.921875 -15.425781 15.046875 -16.125 C 14.179688 -16.832031 13.046875 -17.1875 11.640625 -17.1875 C 11.085938 -17.1875 10.554688 -17.125 10.046875 -17 C 9.546875 -16.882812 9.097656 -16.707031 8.703125 -16.46875 C 8.316406 -16.238281 8.003906 -15.945312 7.765625 -15.59375 C 7.535156 -15.25 7.421875 -14.84375 7.421875 -14.375 Z M 7.421875 -14.375 "/></g></g></g><g fill="#ffffff" fill-opacity="1"><g transform="translate(835.443151, 304.342548)"><g><path d="M 2.84375 1.875 L 21.046875 1.875 L 21.046875 4.6875 L 2.84375 4.6875 Z M 2.84375 1.875 "/></g></g></g><g fill="#ffffff" fill-opacity="1"><g transform="translate(859.342286, 304.342548)"><g><path d="M 6.4375 0 L 3.390625 0 L 3.390625 -19.375 L 6.4375 -19.375 L 6.4375 -16.09375 L 6.90625 -16.09375 C 8.101562 -18.632812 10.1875 -19.90625 13.15625 -19.90625 C 15.394531 -19.90625 17.175781 -19.207031 18.5 -17.8125 C 19.832031 -16.425781 20.5 -14.34375 20.5 -11.5625 L 20.5 0 L 17.453125 0 L 17.453125 -10.9375 C 17.453125 -12.96875 16.992188 -14.488281 16.078125 -15.5 C 15.171875 -16.519531 13.9375 -17.03125 12.375 -17.03125 C 10.53125 -17.03125 9.078125 -16.394531 8.015625 -15.125 C 6.960938 -13.863281 6.4375 -12.179688 6.4375 -10.078125 Z M 6.4375 0 "/></g></g></g><g fill="#ffffff" fill-opacity="1"><g transform="translate(883.241421, 304.342548)"><g><path d="M 9.40625 -25.140625 C 9.40625 -25.898438 9.671875 -26.546875 10.203125 -27.078125 C 10.742188 -27.609375 11.390625 -27.875 12.140625 -27.875 C 12.898438 -27.875 13.546875 -27.609375 14.078125 -27.078125 C 14.609375 -26.546875 14.875 -25.898438 14.875 -25.140625 C 14.875 -24.390625 14.609375 -23.742188 14.078125 -23.203125 C 13.546875 -22.671875 12.898438 -22.40625 12.140625 -22.40625 C 11.390625 -22.40625 10.742188 -22.671875 10.203125 -23.203125 C 9.671875 -23.742188 9.40625 -24.390625 9.40625 -25.140625 Z M 3.859375 -2.8125 L 10.65625 -2.8125 L 10.65625 -16.5625 L 4.5625 -16.5625 L 4.5625 -19.375 L 13.703125 -19.375 L 13.703125 -2.8125 L 20.03125 -2.8125 L 20.03125 0 L 3.859375 0 Z M 3.859375 -2.8125 "/></g></g></g><g fill="#ffffff" fill-opacity="1"><g transform="translate(907.140555, 304.342548)"><g><path d="M 2.734375 -19.375 L 8.828125 -19.375 L 8.828125 -27.328125 L 11.875 -27.328125 L 11.875 -19.375 L 19.375 -19.375 L 19.375 -16.5625 L 11.875 -16.5625 L 11.875 -3.984375 C 11.875 -3.203125 12.222656 -2.8125 12.921875 -2.8125 L 18.4375 -2.8125 L 18.4375 0 L 11.828125 0 C 10.941406 0 10.21875 -0.285156 9.65625 -0.859375 C 9.101562 -1.429688 8.828125 -2.160156 8.828125 -3.046875 L 8.828125 -16.5625 L 2.734375 -16.5625 Z M 2.734375 -19.375 "/></g></g></g><g fill="#ffffff" fill-opacity="1"><g transform="translate(931.03969, 304.342548)"><g><path d="M 8.390625 -11.328125 L 9.0625 -11.328125 L 16.4375 -19.375 L 20.1875 -19.375 L 20.1875 -19.140625 L 12.140625 -10.265625 L 12.140625 -9.5625 L 21.125 -0.234375 L 21.125 0 L 17.375 0 L 9.140625 -8.515625 L 8.390625 -8.515625 L 8.390625 0 L 5.34375 0 L 5.34375 -27.328125 L 8.390625 -27.328125 Z M 8.390625 -11.328125 "/></g></g></g><g fill="#ffffff" fill-opacity="1"><g transform="translate(954.938825, 304.342548)"><g><path d="M 8.390625 -11.328125 L 9.0625 -11.328125 L 16.4375 -19.375 L 20.1875 -19.375 L 20.1875 -19.140625 L 12.140625 -10.265625 L 12.140625 -9.5625 L 21.125 -0.234375 L 21.125 0 L 17.375 0 L 9.140625 -8.515625 L 8.390625 -8.515625 L 8.390625 0 L 5.34375 0 L 5.34375 -27.328125 L 8.390625 -27.328125 Z M 8.390625 -11.328125 "/></g></g></g><g fill="#ffffff" fill-opacity="1"><g transform="translate(978.83796, 304.342548)"><g><path d="M 2.296875 -19.375 L 9.328125 -19.375 L 9.328125 -16.796875 L 9.796875 -16.796875 C 10.296875 -17.859375 11 -18.640625 11.90625 -19.140625 C 12.820312 -19.648438 13.863281 -19.90625 15.03125 -19.90625 C 16.988281 -19.90625 18.5625 -19.269531 19.75 -18 C 20.945312 -16.726562 21.585938 -14.867188 21.671875 -12.421875 L 18.46875 -11.953125 C 18.46875 -13.742188 18.035156 -15.035156 17.171875 -15.828125 C 16.316406 -16.628906 15.265625 -17.03125 14.015625 -17.03125 C 13.210938 -17.03125 12.515625 -16.875 11.921875 -16.5625 C 11.335938 -16.25 10.847656 -15.816406 10.453125 -15.265625 C 10.066406 -14.722656 9.78125 -14.085938 9.59375 -13.359375 C 9.414062 -12.628906 9.328125 -11.847656 9.328125 -11.015625 L 9.328125 -2.8125 L 14.25 -2.8125 L 14.25 0 L 1.828125 0 L 1.828125 -2.8125 L 6.28125 -2.8125 L 6.28125 -16.5625 L 2.296875 -16.5625 Z M 2.296875 -19.375 "/></g></g></g></svg>