<svg xmlns="http://www.w3.org/2000/svg" xmlns:xlink="http://www.w3.org/1999/xlink" width="5163" zoomAndPan="magnify" viewBox="0 0 3872.25 2177.249974" height="2903" preserveAspectRatio="xMidYMid meet" version="1.0"><defs><g/><clipPath id="1d3bbc55a4"><path d="M 560.566406 1138.25 L 991.757812 1138.25 L 991.757812 1569.441406 L 560.566406 1569.441406 Z M 560.566406 1138.25 " clip-rule="nonzero"/></clipPath><clipPath id="f911c23375"><path d="M 737.433594 1271.5 L 816.550781 1271.5 L 816.550781 1437.644531 L 737.433594 1437.644531 Z M 737.433594 1271.5 " clip-rule="nonzero"/></clipPath><clipPath id="bf2f474f29"><path d="M 560.566406 606.378906 L 991.757812 606.378906 L 991.757812 1037.570312 L 560.566406 1037.570312 Z M 560.566406 606.378906 " clip-rule="nonzero"/></clipPath><clipPath id="081c785359"><path d="M 701.4375 742.613281 L 859.671875 742.613281 L 859.671875 900.847656 L 701.4375 900.847656 Z M 701.4375 742.613281 " clip-rule="nonzero"/></clipPath></defs><g clip-path="url(#1d3bbc55a4)"><path fill="#d5fc34" d="M 560.566406 1138.25 L 991.757812 1138.25 L 991.757812 1569.441406 L 560.566406 1569.441406 Z M 560.566406 1138.25 " fill-opacity="1" fill-rule="nonzero"/></g><g clip-path="url(#f911c23375)"><path fill="#000000" d="M 798.320312 1299.058594 L 816.566406 1299.058594 L 816.566406 1271.746094 L 793.242188 1271.746094 L 793.242188 1271.847656 C 762.601562 1272.949219 756.3125 1290.015625 755.753906 1307.992188 L 755.699219 1307.992188 L 755.699219 1326.957031 L 737.449219 1326.957031 L 737.449219 1354.285156 L 755.699219 1354.285156 L 755.699219 1437.40625 L 788.457031 1437.40625 L 788.457031 1354.285156 L 811.933594 1354.285156 L 816.566406 1326.957031 L 788.457031 1326.957031 L 788.457031 1309.996094 C 788.457031 1303.960938 792.511719 1299.058594 798.320312 1299.058594 Z M 798.320312 1299.058594 " fill-opacity="1" fill-rule="nonzero"/></g><g clip-path="url(#bf2f474f29)"><path fill="#d5fc34" d="M 560.566406 606.378906 L 991.757812 606.378906 L 991.757812 1037.570312 L 560.566406 1037.570312 Z M 560.566406 606.378906 " fill-opacity="1" fill-rule="nonzero"/></g><g clip-path="url(#081c785359)"><path fill="#000000" d="M 780.554688 756.871094 C 801.683594 756.871094 804.183594 756.949219 812.523438 757.328125 C 820.238281 757.683594 824.429688 758.972656 827.214844 760.054688 C 830.90625 761.488281 833.546875 763.203125 836.3125 765.972656 C 839.082031 768.742188 840.796875 771.378906 842.230469 775.070312 C 843.316406 777.859375 844.601562 782.046875 844.957031 789.761719 C 845.339844 798.105469 845.417969 800.605469 845.417969 821.730469 C 845.417969 842.859375 845.339844 845.359375 844.957031 853.699219 C 844.601562 861.414062 843.316406 865.605469 842.230469 868.390625 C 840.796875 872.089844 839.082031 874.722656 836.3125 877.492188 C 833.546875 880.257812 830.90625 881.972656 827.214844 883.40625 C 824.429688 884.492188 820.238281 885.777344 812.523438 886.132812 C 804.183594 886.515625 801.683594 886.59375 780.554688 886.59375 C 759.429688 886.59375 756.925781 886.515625 748.585938 886.132812 C 740.871094 885.777344 736.683594 884.492188 733.894531 883.40625 C 730.199219 881.972656 727.566406 880.257812 724.796875 877.492188 C 722.027344 874.722656 720.3125 872.089844 718.878906 868.390625 C 717.796875 865.605469 716.503906 861.414062 716.152344 853.699219 C 715.773438 845.359375 715.691406 842.859375 715.691406 821.730469 C 715.691406 800.605469 715.773438 798.105469 716.152344 789.761719 C 716.503906 782.046875 717.796875 777.859375 718.878906 775.070312 C 720.3125 771.378906 722.027344 768.742188 724.796875 765.972656 C 727.566406 763.203125 730.199219 761.488281 733.894531 760.054688 C 736.683594 758.972656 740.871094 757.683594 748.585938 757.328125 C 756.925781 756.949219 759.429688 756.871094 780.554688 756.871094 M 780.554688 742.613281 C 759.066406 742.613281 756.375 742.703125 747.933594 743.089844 C 739.511719 743.472656 733.761719 744.8125 728.730469 746.765625 C 723.527344 748.789062 719.113281 751.496094 714.714844 755.894531 C 710.316406 760.292969 707.613281 764.703125 705.589844 769.90625 C 703.636719 774.9375 702.296875 780.691406 701.914062 789.109375 C 701.527344 797.550781 701.4375 800.242188 701.4375 821.730469 C 701.4375 843.214844 701.527344 845.910156 701.914062 854.347656 C 702.296875 862.773438 703.636719 868.523438 705.589844 873.558594 C 707.613281 878.757812 710.316406 883.171875 714.714844 887.570312 C 719.113281 891.964844 723.527344 894.675781 728.730469 896.695312 C 733.761719 898.648438 739.511719 899.988281 747.933594 900.371094 C 756.375 900.757812 759.066406 900.847656 780.554688 900.847656 C 802.039062 900.847656 804.734375 900.757812 813.171875 900.371094 C 821.597656 899.988281 827.34375 898.648438 832.375 896.695312 C 837.582031 894.675781 841.996094 891.964844 846.394531 887.570312 C 850.789062 883.171875 853.496094 878.757812 855.519531 873.558594 C 857.472656 868.523438 858.8125 862.773438 859.195312 854.347656 C 859.578125 845.910156 859.671875 843.214844 859.671875 821.730469 C 859.671875 800.242188 859.578125 797.550781 859.195312 789.109375 C 858.8125 780.691406 857.472656 774.9375 855.519531 769.90625 C 853.496094 764.703125 850.789062 760.292969 846.394531 755.894531 C 841.996094 751.496094 837.582031 748.789062 832.375 746.765625 C 827.34375 744.8125 821.597656 743.472656 813.171875 743.089844 C 804.734375 742.703125 802.039062 742.613281 780.554688 742.613281 Z M 780.554688 781.101562 C 758.117188 781.101562 739.925781 799.292969 739.925781 821.730469 C 739.925781 844.167969 758.117188 862.359375 780.554688 862.359375 C 802.992188 862.359375 821.183594 844.167969 821.183594 821.730469 C 821.183594 799.292969 802.992188 781.101562 780.554688 781.101562 Z M 780.554688 848.105469 C 765.992188 848.105469 754.183594 836.292969 754.183594 821.730469 C 754.183594 807.167969 765.992188 795.359375 780.554688 795.359375 C 795.117188 795.359375 806.929688 807.167969 806.929688 821.730469 C 806.929688 836.292969 795.117188 848.105469 780.554688 848.105469 Z M 832.285156 779.496094 C 832.285156 784.738281 828.03125 788.992188 822.789062 788.992188 C 817.542969 788.992188 813.296875 784.738281 813.296875 779.496094 C 813.296875 774.253906 817.542969 770.003906 822.789062 770.003906 C 828.03125 770.003906 832.285156 774.253906 832.285156 779.496094 Z M 832.285156 779.496094 " fill-opacity="1" fill-rule="nonzero"/></g><g fill="#ffffff" fill-opacity="1"><g transform="translate(1165.971392, 1422.963594)"><g><path d="M 109.828125 0 L 94.640625 0 L 94.640625 -69.3125 C 94.640625 -73.863281 93.597656 -77.597656 91.515625 -80.515625 C 89.441406 -83.429688 86.132812 -84.890625 81.59375 -84.890625 C 77.300781 -84.890625 73.820312 -83.300781 71.15625 -80.125 C 68.5 -76.945312 67.171875 -72.046875 67.171875 -65.421875 L 67.171875 0 L 51.984375 0 L 51.984375 -70.09375 C 51.984375 -74.382812 50.816406 -77.921875 48.484375 -80.703125 C 46.148438 -83.492188 43.035156 -84.890625 39.140625 -84.890625 C 34.460938 -84.890625 30.859375 -83.203125 28.328125 -79.828125 C 25.796875 -76.453125 24.53125 -72.039062 24.53125 -66.59375 L 24.53125 0 L 9.34375 0 L 9.34375 -96.578125 L 24.53125 -96.578125 L 24.53125 -86.0625 L 26.875 -86.0625 C 28.5625 -90.601562 31.023438 -93.945312 34.265625 -96.09375 C 37.515625 -98.238281 41.347656 -99.3125 45.765625 -99.3125 C 50.429688 -99.3125 54.289062 -98.078125 57.34375 -95.609375 C 60.394531 -93.140625 62.503906 -89.957031 63.671875 -86.0625 L 66.015625 -86.0625 C 70.421875 -94.894531 77.429688 -99.3125 87.046875 -99.3125 C 94.304688 -99.3125 99.914062 -97.003906 103.875 -92.390625 C 107.84375 -87.785156 109.828125 -81.78125 109.828125 -74.375 Z M 109.828125 0 "/></g></g></g><g fill="#ffffff" fill-opacity="1"><g transform="translate(1285.088057, 1422.963594)"><g><path d="M 46.921875 -125.40625 C 46.921875 -129.164062 48.25 -132.375 50.90625 -135.03125 C 53.570312 -137.695312 56.789062 -139.03125 60.5625 -139.03125 C 64.320312 -139.03125 67.53125 -137.695312 70.1875 -135.03125 C 72.851562 -132.375 74.1875 -129.164062 74.1875 -125.40625 C 74.1875 -121.632812 72.851562 -118.414062 70.1875 -115.75 C 67.53125 -113.09375 64.320312 -111.765625 60.5625 -111.765625 C 56.789062 -111.765625 53.570312 -113.09375 50.90625 -115.75 C 48.25 -118.414062 46.921875 -121.632812 46.921875 -125.40625 Z M 19.28125 -14.015625 L 53.15625 -14.015625 L 53.15625 -82.5625 L 22.78125 -82.5625 L 22.78125 -96.578125 L 68.34375 -96.578125 L 68.34375 -14.015625 L 99.890625 -14.015625 L 99.890625 0 L 19.28125 0 Z M 19.28125 -14.015625 "/></g></g></g><g fill="#ffffff" fill-opacity="1"><g transform="translate(1404.204722, 1422.963594)"><g><path d="M 107.296875 -34.265625 C 106.253906 -28.941406 104.46875 -24.007812 101.9375 -19.46875 C 99.40625 -14.925781 96.191406 -11 92.296875 -7.6875 C 88.398438 -4.375 83.851562 -1.8125 78.65625 0 C 73.46875 1.8125 67.695312 2.71875 61.34375 2.71875 C 54.59375 2.71875 48.195312 1.617188 42.15625 -0.578125 C 36.125 -2.785156 30.832031 -6 26.28125 -10.21875 C 21.738281 -14.4375 18.132812 -19.597656 15.46875 -25.703125 C 12.8125 -31.804688 11.484375 -38.816406 11.484375 -46.734375 L 11.484375 -49.0625 C 11.484375 -56.851562 12.8125 -63.863281 15.46875 -70.09375 C 18.132812 -76.320312 21.738281 -81.578125 26.28125 -85.859375 C 30.832031 -90.148438 36.125 -93.460938 42.15625 -95.796875 C 48.195312 -98.140625 54.59375 -99.3125 61.34375 -99.3125 C 67.4375 -99.3125 73.078125 -98.398438 78.265625 -96.578125 C 83.460938 -94.765625 88.039062 -92.203125 92 -88.890625 C 95.957031 -85.578125 99.203125 -81.648438 101.734375 -77.109375 C 104.265625 -72.566406 105.988281 -67.632812 106.90625 -62.3125 L 91.71875 -58.8125 C 91.320312 -62.1875 90.378906 -65.460938 88.890625 -68.640625 C 87.398438 -71.816406 85.390625 -74.601562 82.859375 -77 C 80.328125 -79.40625 77.242188 -81.320312 73.609375 -82.75 C 69.972656 -84.175781 65.753906 -84.890625 60.953125 -84.890625 C 56.273438 -84.890625 51.890625 -84.015625 47.796875 -82.265625 C 43.710938 -80.515625 40.113281 -78.046875 37 -74.859375 C 33.882812 -71.679688 31.445312 -67.882812 29.6875 -63.46875 C 27.9375 -59.0625 27.0625 -54.257812 27.0625 -49.0625 L 27.0625 -46.734375 C 27.0625 -41.273438 27.9375 -36.375 29.6875 -32.03125 C 31.445312 -27.6875 33.882812 -24.019531 37 -21.03125 C 40.113281 -18.039062 43.742188 -15.734375 47.890625 -14.109375 C 52.046875 -12.492188 56.53125 -11.6875 61.34375 -11.6875 C 66.144531 -11.6875 70.328125 -12.429688 73.890625 -13.921875 C 77.460938 -15.410156 80.515625 -17.351562 83.046875 -19.75 C 85.578125 -22.15625 87.585938 -24.914062 89.078125 -28.03125 C 90.578125 -31.15625 91.585938 -34.40625 92.109375 -37.78125 Z M 107.296875 -34.265625 "/></g></g></g><g fill="#ffffff" fill-opacity="1"><g transform="translate(1523.321387, 1422.963594)"><g><path d="M 11.484375 -96.578125 L 46.53125 -96.578125 L 46.53125 -83.734375 L 48.875 -83.734375 C 51.34375 -89.054688 54.847656 -92.984375 59.390625 -95.515625 C 63.929688 -98.046875 69.125 -99.3125 74.96875 -99.3125 C 84.707031 -99.3125 92.5625 -96.128906 98.53125 -89.765625 C 104.5 -83.398438 107.675781 -74.117188 108.0625 -61.921875 L 92.109375 -59.578125 C 92.109375 -68.535156 89.960938 -74.992188 85.671875 -78.953125 C 81.390625 -82.910156 76.132812 -84.890625 69.90625 -84.890625 C 65.882812 -84.890625 62.410156 -84.109375 59.484375 -82.546875 C 56.566406 -80.992188 54.132812 -78.851562 52.1875 -76.125 C 50.238281 -73.40625 48.804688 -70.226562 47.890625 -66.59375 C 46.984375 -62.957031 46.53125 -59.0625 46.53125 -54.90625 L 46.53125 -14.015625 L 71.078125 -14.015625 L 71.078125 0 L 9.15625 0 L 9.15625 -14.015625 L 31.34375 -14.015625 L 31.34375 -82.5625 L 11.484375 -82.5625 Z M 11.484375 -96.578125 "/></g></g></g><g fill="#ffffff" fill-opacity="1"><g transform="translate(1642.438052, 1422.963594)"><g><path d="M 108.0625 -47.125 C 108.0625 -39.070312 106.726562 -31.960938 104.0625 -25.796875 C 101.40625 -19.628906 97.867188 -14.4375 93.453125 -10.21875 C 89.046875 -6 83.890625 -2.785156 77.984375 -0.578125 C 72.078125 1.617188 65.941406 2.71875 59.578125 2.71875 C 53.085938 2.71875 46.921875 1.617188 41.078125 -0.578125 C 35.242188 -2.785156 30.117188 -6 25.703125 -10.21875 C 21.285156 -14.4375 17.742188 -19.628906 15.078125 -25.796875 C 12.421875 -31.960938 11.09375 -39.070312 11.09375 -47.125 L 11.09375 -49.453125 C 11.09375 -57.378906 12.421875 -64.421875 15.078125 -70.578125 C 17.742188 -76.742188 21.316406 -81.96875 25.796875 -86.25 C 30.273438 -90.539062 35.4375 -93.789062 41.28125 -96 C 47.125 -98.207031 53.222656 -99.3125 59.578125 -99.3125 C 65.941406 -99.3125 72.046875 -98.207031 77.890625 -96 C 83.734375 -93.789062 88.890625 -90.539062 93.359375 -86.25 C 97.835938 -81.96875 101.40625 -76.742188 104.0625 -70.578125 C 106.726562 -64.421875 108.0625 -57.378906 108.0625 -49.453125 Z M 59.578125 -11.6875 C 64.253906 -11.6875 68.570312 -12.492188 72.53125 -14.109375 C 76.488281 -15.734375 79.957031 -18.101562 82.9375 -21.21875 C 85.925781 -24.332031 88.265625 -28.0625 89.953125 -32.40625 C 91.640625 -36.757812 92.484375 -41.664062 92.484375 -47.125 L 92.484375 -49.453125 C 92.484375 -54.648438 91.640625 -59.421875 89.953125 -63.765625 C 88.265625 -68.117188 85.925781 -71.851562 82.9375 -74.96875 C 79.957031 -78.082031 76.457031 -80.515625 72.4375 -82.265625 C 68.414062 -84.015625 64.128906 -84.890625 59.578125 -84.890625 C 55.035156 -84.890625 50.753906 -84.015625 46.734375 -82.265625 C 42.710938 -80.515625 39.207031 -78.082031 36.21875 -74.96875 C 33.226562 -71.851562 30.890625 -68.117188 29.203125 -63.765625 C 27.515625 -59.421875 26.671875 -54.648438 26.671875 -49.453125 L 26.671875 -47.125 C 26.671875 -41.664062 27.515625 -36.757812 29.203125 -32.40625 C 30.890625 -28.0625 33.226562 -24.332031 36.21875 -21.21875 C 39.207031 -18.101562 42.679688 -15.734375 46.640625 -14.109375 C 50.597656 -12.492188 54.910156 -11.6875 59.578125 -11.6875 Z M 59.578125 -11.6875 "/></g></g></g><g fill="#ffffff" fill-opacity="1"><g transform="translate(1761.554717, 1422.963594)"><g><path d="M 28.625 0 L 13.4375 0 L 13.4375 -136.296875 L 28.625 -136.296875 L 28.625 -81.390625 L 30.953125 -81.390625 C 34.328125 -87.234375 39 -91.679688 44.96875 -94.734375 C 50.945312 -97.785156 57.441406 -99.3125 64.453125 -99.3125 C 70.421875 -99.3125 76.066406 -98.207031 81.390625 -96 C 86.710938 -93.789062 91.414062 -90.609375 95.5 -86.453125 C 99.59375 -82.296875 102.835938 -77.164062 105.234375 -71.0625 C 107.640625 -64.96875 108.84375 -58.023438 108.84375 -50.234375 L 108.84375 -46.34375 C 108.84375 -38.425781 107.675781 -31.414062 105.34375 -25.3125 C 103.007812 -19.207031 99.796875 -14.078125 95.703125 -9.921875 C 91.617188 -5.773438 86.847656 -2.628906 81.390625 -0.484375 C 75.941406 1.648438 70.164062 2.71875 64.0625 2.71875 C 60.945312 2.71875 57.765625 2.359375 54.515625 1.640625 C 51.273438 0.929688 48.191406 -0.164062 45.265625 -1.65625 C 42.347656 -3.144531 39.65625 -4.957031 37.1875 -7.09375 C 34.71875 -9.238281 32.640625 -11.804688 30.953125 -14.796875 L 28.625 -14.796875 Z M 60.953125 -11.6875 C 65.617188 -11.6875 69.898438 -12.492188 73.796875 -14.109375 C 77.691406 -15.734375 81.097656 -18.039062 84.015625 -21.03125 C 86.941406 -24.019531 89.210938 -27.65625 90.828125 -31.9375 C 92.453125 -36.21875 93.265625 -41.019531 93.265625 -46.34375 L 93.265625 -50.234375 C 93.265625 -55.429688 92.453125 -60.140625 90.828125 -64.359375 C 89.210938 -68.578125 86.941406 -72.207031 84.015625 -75.25 C 81.097656 -78.300781 77.660156 -80.671875 73.703125 -82.359375 C 69.742188 -84.046875 65.492188 -84.890625 60.953125 -84.890625 C 56.398438 -84.890625 52.175781 -84.015625 48.28125 -82.265625 C 44.394531 -80.515625 40.988281 -78.082031 38.0625 -74.96875 C 35.144531 -71.851562 32.84375 -68.117188 31.15625 -63.765625 C 29.46875 -59.421875 28.625 -54.648438 28.625 -49.453125 L 28.625 -47.125 C 28.625 -41.800781 29.46875 -36.960938 31.15625 -32.609375 C 32.84375 -28.265625 35.144531 -24.535156 38.0625 -21.421875 C 40.988281 -18.304688 44.394531 -15.90625 48.28125 -14.21875 C 52.175781 -12.53125 56.398438 -11.6875 60.953125 -11.6875 Z M 60.953125 -11.6875 "/></g></g></g><g fill="#ffffff" fill-opacity="1"><g transform="translate(1880.671382, 1422.963594)"><g><path d="M 85.875 -96.578125 L 101.0625 -96.578125 L 101.0625 0 L 85.875 0 L 85.875 -17.53125 L 83.53125 -17.53125 C 80.414062 -11.289062 76.328125 -6.351562 71.265625 -2.71875 C 66.203125 0.90625 59.773438 2.71875 51.984375 2.71875 C 46.660156 2.71875 41.757812 1.84375 37.28125 0.09375 C 32.8125 -1.65625 28.984375 -4.28125 25.796875 -7.78125 C 22.617188 -11.289062 20.148438 -15.640625 18.390625 -20.828125 C 16.640625 -26.023438 15.765625 -32.0625 15.765625 -38.9375 L 15.765625 -96.578125 L 30.953125 -96.578125 L 30.953125 -40.890625 C 30.953125 -30.765625 33.03125 -23.363281 37.1875 -18.6875 C 41.34375 -14.019531 47.707031 -11.6875 56.28125 -11.6875 C 65.488281 -11.6875 72.722656 -14.832031 77.984375 -21.125 C 83.242188 -27.425781 85.875 -35.832031 85.875 -46.34375 Z M 85.875 -96.578125 "/></g></g></g><g fill="#ffffff" fill-opacity="1"><g transform="translate(1999.788047, 1422.963594)"><g><path d="M 37 -71.65625 C 37 -66.976562 38.976562 -63.40625 42.9375 -60.9375 C 46.894531 -58.476562 54.128906 -56.859375 64.640625 -56.078125 C 75.941406 -55.171875 84.546875 -52.476562 90.453125 -48 C 96.359375 -43.519531 99.3125 -36.992188 99.3125 -28.421875 L 99.3125 -27.265625 C 99.3125 -22.585938 98.367188 -18.398438 96.484375 -14.703125 C 94.597656 -11.003906 92 -7.851562 88.6875 -5.25 C 85.382812 -2.65625 81.363281 -0.679688 76.625 0.671875 C 71.882812 2.035156 66.722656 2.71875 61.140625 2.71875 C 53.609375 2.71875 47.148438 1.710938 41.765625 -0.296875 C 36.378906 -2.304688 31.898438 -4.960938 28.328125 -8.265625 C 24.765625 -11.578125 22.070312 -15.34375 20.25 -19.5625 C 18.4375 -23.78125 17.398438 -28.035156 17.140625 -32.328125 L 31.546875 -35.828125 C 32.191406 -28.429688 35.046875 -22.492188 40.109375 -18.015625 C 45.171875 -13.535156 51.921875 -11.296875 60.359375 -11.296875 C 67.503906 -11.296875 73.25 -12.691406 77.59375 -15.484375 C 81.945312 -18.273438 84.125 -22.203125 84.125 -27.265625 C 84.125 -32.710938 81.976562 -36.601562 77.6875 -38.9375 C 73.40625 -41.28125 66.460938 -42.773438 56.859375 -43.421875 C 45.691406 -44.203125 37.125 -46.796875 31.15625 -51.203125 C 25.1875 -55.617188 22.203125 -62.046875 22.203125 -70.484375 L 22.203125 -71.65625 C 22.203125 -76.195312 23.175781 -80.1875 25.125 -83.625 C 27.070312 -87.070312 29.695312 -89.960938 33 -92.296875 C 36.3125 -94.628906 40.046875 -96.378906 44.203125 -97.546875 C 48.359375 -98.722656 52.707031 -99.3125 57.25 -99.3125 C 63.601562 -99.3125 69.179688 -98.429688 73.984375 -96.671875 C 78.796875 -94.921875 82.820312 -92.648438 86.0625 -89.859375 C 89.3125 -87.066406 91.8125 -83.851562 93.5625 -80.21875 C 95.3125 -76.582031 96.445312 -72.945312 96.96875 -69.3125 L 82.5625 -65.8125 C 81.914062 -72.039062 79.414062 -76.90625 75.0625 -80.40625 C 70.71875 -83.914062 65.039062 -85.671875 58.03125 -85.671875 C 55.300781 -85.671875 52.671875 -85.378906 50.140625 -84.796875 C 47.609375 -84.210938 45.367188 -83.335938 43.421875 -82.171875 C 41.472656 -81.003906 39.914062 -79.539062 38.75 -77.78125 C 37.582031 -76.03125 37 -73.988281 37 -71.65625 Z M 37 -71.65625 "/></g></g></g><g fill="#ffffff" fill-opacity="1"><g transform="translate(2118.904712, 1422.963594)"><g><path d="M 32.125 0 L 16.9375 0 L 16.9375 -96.578125 L 32.125 -96.578125 L 32.125 -80.21875 L 34.46875 -80.21875 C 40.4375 -92.945312 50.820312 -99.3125 65.625 -99.3125 C 76.78125 -99.3125 85.671875 -95.835938 92.296875 -88.890625 C 98.921875 -81.941406 102.234375 -71.523438 102.234375 -57.640625 L 102.234375 0 L 87.046875 0 L 87.046875 -54.515625 C 87.046875 -64.640625 84.769531 -72.234375 80.21875 -77.296875 C 75.675781 -82.359375 69.507812 -84.890625 61.71875 -84.890625 C 52.507812 -84.890625 45.273438 -81.742188 40.015625 -75.453125 C 34.753906 -69.160156 32.125 -60.753906 32.125 -50.234375 Z M 32.125 0 "/></g></g></g><g fill="#ffffff" fill-opacity="1"><g transform="translate(2238.021376, 1422.963594)"><g><path d="M 46.921875 -125.40625 C 46.921875 -129.164062 48.25 -132.375 50.90625 -135.03125 C 53.570312 -137.695312 56.789062 -139.03125 60.5625 -139.03125 C 64.320312 -139.03125 67.53125 -137.695312 70.1875 -135.03125 C 72.851562 -132.375 74.1875 -129.164062 74.1875 -125.40625 C 74.1875 -121.632812 72.851562 -118.414062 70.1875 -115.75 C 67.53125 -113.09375 64.320312 -111.765625 60.5625 -111.765625 C 56.789062 -111.765625 53.570312 -113.09375 50.90625 -115.75 C 48.25 -118.414062 46.921875 -121.632812 46.921875 -125.40625 Z M 19.28125 -14.015625 L 53.15625 -14.015625 L 53.15625 -82.5625 L 22.78125 -82.5625 L 22.78125 -96.578125 L 68.34375 -96.578125 L 68.34375 -14.015625 L 99.890625 -14.015625 L 99.890625 0 L 19.28125 0 Z M 19.28125 -14.015625 "/></g></g></g><g fill="#ffffff" fill-opacity="1"><g transform="translate(2357.138041, 1422.963594)"><g><path d="M 13.625 -96.578125 L 44 -96.578125 L 44 -136.296875 L 59.1875 -136.296875 L 59.1875 -96.578125 L 96.578125 -96.578125 L 96.578125 -82.5625 L 59.1875 -82.5625 L 59.1875 -19.859375 C 59.1875 -15.960938 60.941406 -14.015625 64.453125 -14.015625 L 91.90625 -14.015625 L 91.90625 0 L 59 0 C 54.582031 0 50.976562 -1.425781 48.1875 -4.28125 C 45.394531 -7.132812 44 -10.769531 44 -15.1875 L 44 -82.5625 L 13.625 -82.5625 Z M 13.625 -96.578125 "/></g></g></g><g fill="#ffffff" fill-opacity="1"><g transform="translate(2476.254706, 1422.963594)"><g><path d="M 41.859375 -56.46875 L 45.171875 -56.46875 L 81.984375 -96.578125 L 100.671875 -96.578125 L 100.671875 -95.40625 L 60.5625 -51.21875 L 60.5625 -47.703125 L 105.34375 -1.171875 L 105.34375 0 L 86.65625 0 L 45.5625 -42.453125 L 41.859375 -42.453125 L 41.859375 0 L 26.671875 0 L 26.671875 -136.296875 L 41.859375 -136.296875 Z M 41.859375 -56.46875 "/></g></g></g><g fill="#ffffff" fill-opacity="1"><g transform="translate(2595.371371, 1422.963594)"><g><path d="M 41.859375 -56.46875 L 45.171875 -56.46875 L 81.984375 -96.578125 L 100.671875 -96.578125 L 100.671875 -95.40625 L 60.5625 -51.21875 L 60.5625 -47.703125 L 105.34375 -1.171875 L 105.34375 0 L 86.65625 0 L 45.5625 -42.453125 L 41.859375 -42.453125 L 41.859375 0 L 26.671875 0 L 26.671875 -136.296875 L 41.859375 -136.296875 Z M 41.859375 -56.46875 "/></g></g></g><g fill="#ffffff" fill-opacity="1"><g transform="translate(2714.488036, 1422.963594)"><g><path d="M 11.484375 -96.578125 L 46.53125 -96.578125 L 46.53125 -83.734375 L 48.875 -83.734375 C 51.34375 -89.054688 54.847656 -92.984375 59.390625 -95.515625 C 63.929688 -98.046875 69.125 -99.3125 74.96875 -99.3125 C 84.707031 -99.3125 92.5625 -96.128906 98.53125 -89.765625 C 104.5 -83.398438 107.675781 -74.117188 108.0625 -61.921875 L 92.109375 -59.578125 C 92.109375 -68.535156 89.960938 -74.992188 85.671875 -78.953125 C 81.390625 -82.910156 76.132812 -84.890625 69.90625 -84.890625 C 65.882812 -84.890625 62.410156 -84.109375 59.484375 -82.546875 C 56.566406 -80.992188 54.132812 -78.851562 52.1875 -76.125 C 50.238281 -73.40625 48.804688 -70.226562 47.890625 -66.59375 C 46.984375 -62.957031 46.53125 -59.0625 46.53125 -54.90625 L 46.53125 -14.015625 L 71.078125 -14.015625 L 71.078125 0 L 9.15625 0 L 9.15625 -14.015625 L 31.34375 -14.015625 L 31.34375 -82.5625 L 11.484375 -82.5625 Z M 11.484375 -96.578125 "/></g></g></g><g fill="#ffffff" fill-opacity="1"><g transform="translate(1162.553026, 903.40331)"><g><path d="M 110.234375 0 L 94.984375 0 L 94.984375 -69.578125 C 94.984375 -74.140625 93.941406 -77.882812 91.859375 -80.8125 C 89.773438 -83.738281 86.453125 -85.203125 81.890625 -85.203125 C 77.585938 -85.203125 74.097656 -83.609375 71.421875 -80.421875 C 68.753906 -77.234375 67.421875 -72.316406 67.421875 -65.671875 L 67.421875 0 L 52.1875 0 L 52.1875 -70.359375 C 52.1875 -74.660156 51.007812 -78.207031 48.65625 -81 C 46.3125 -83.800781 43.1875 -85.203125 39.28125 -85.203125 C 34.59375 -85.203125 30.976562 -83.507812 28.4375 -80.125 C 25.894531 -76.738281 24.625 -72.3125 24.625 -66.84375 L 24.625 0 L 9.375 0 L 9.375 -96.9375 L 24.625 -96.9375 L 24.625 -86.390625 L 26.96875 -86.390625 C 28.664062 -90.941406 31.140625 -94.289062 34.390625 -96.4375 C 37.648438 -98.59375 41.492188 -99.671875 45.921875 -99.671875 C 50.617188 -99.671875 54.5 -98.429688 57.5625 -95.953125 C 60.625 -93.484375 62.738281 -90.296875 63.90625 -86.390625 L 66.25 -86.390625 C 70.675781 -95.242188 77.710938 -99.671875 87.359375 -99.671875 C 94.660156 -99.671875 100.296875 -97.359375 104.265625 -92.734375 C 108.242188 -88.109375 110.234375 -82.082031 110.234375 -74.65625 Z M 110.234375 0 "/></g></g></g><g fill="#ffffff" fill-opacity="1"><g transform="translate(1282.163191, 903.40331)"><g><path d="M 47.09375 -125.859375 C 47.09375 -129.640625 48.425781 -132.863281 51.09375 -135.53125 C 53.769531 -138.207031 57 -139.546875 60.78125 -139.546875 C 64.5625 -139.546875 67.785156 -138.207031 70.453125 -135.53125 C 73.128906 -132.863281 74.46875 -129.640625 74.46875 -125.859375 C 74.46875 -122.078125 73.128906 -118.851562 70.453125 -116.1875 C 67.785156 -113.519531 64.5625 -112.1875 60.78125 -112.1875 C 57 -112.1875 53.769531 -113.519531 51.09375 -116.1875 C 48.425781 -118.851562 47.09375 -122.078125 47.09375 -125.859375 Z M 19.34375 -14.078125 L 53.359375 -14.078125 L 53.359375 -82.859375 L 22.859375 -82.859375 L 22.859375 -96.9375 L 68.59375 -96.9375 L 68.59375 -14.078125 L 100.265625 -14.078125 L 100.265625 0 L 19.34375 0 Z M 19.34375 -14.078125 "/></g></g></g><g fill="#ffffff" fill-opacity="1"><g transform="translate(1401.773356, 903.40331)"><g><path d="M 107.6875 -34.390625 C 106.644531 -29.054688 104.851562 -24.109375 102.3125 -19.546875 C 99.769531 -14.984375 96.546875 -11.039062 92.640625 -7.71875 C 88.734375 -4.394531 84.171875 -1.820312 78.953125 0 C 73.742188 1.820312 67.945312 2.734375 61.5625 2.734375 C 54.789062 2.734375 48.375 1.628906 42.3125 -0.578125 C 36.25 -2.796875 30.9375 -6.019531 26.375 -10.25 C 21.820312 -14.488281 18.207031 -19.671875 15.53125 -25.796875 C 12.863281 -31.921875 11.53125 -38.957031 11.53125 -46.90625 L 11.53125 -49.25 C 11.53125 -57.0625 12.863281 -64.09375 15.53125 -70.34375 C 18.207031 -76.601562 21.820312 -81.882812 26.375 -86.1875 C 30.9375 -90.488281 36.25 -93.8125 42.3125 -96.15625 C 48.375 -98.5 54.789062 -99.671875 61.5625 -99.671875 C 67.6875 -99.671875 73.351562 -98.757812 78.5625 -96.9375 C 83.78125 -95.113281 88.375 -92.539062 92.34375 -89.21875 C 96.320312 -85.894531 99.578125 -81.953125 102.109375 -77.390625 C 104.648438 -72.828125 106.378906 -67.878906 107.296875 -62.546875 L 92.046875 -59.015625 C 91.660156 -62.410156 90.71875 -65.703125 89.21875 -68.890625 C 87.71875 -72.085938 85.695312 -74.890625 83.15625 -77.296875 C 80.613281 -79.703125 77.519531 -81.617188 73.875 -83.046875 C 70.226562 -84.484375 65.992188 -85.203125 61.171875 -85.203125 C 56.484375 -85.203125 52.085938 -84.320312 47.984375 -82.5625 C 43.878906 -80.8125 40.257812 -78.335938 37.125 -75.140625 C 34 -71.953125 31.554688 -68.140625 29.796875 -63.703125 C 28.046875 -59.273438 27.171875 -54.457031 27.171875 -49.25 L 27.171875 -46.90625 C 27.171875 -41.4375 28.046875 -36.519531 29.796875 -32.15625 C 31.554688 -27.789062 34 -24.109375 37.125 -21.109375 C 40.257812 -18.109375 43.910156 -15.789062 48.078125 -14.15625 C 52.242188 -12.53125 56.738281 -11.71875 61.5625 -11.71875 C 66.382812 -11.71875 70.585938 -12.46875 74.171875 -13.96875 C 77.753906 -15.46875 80.816406 -17.421875 83.359375 -19.828125 C 85.898438 -22.242188 87.914062 -25.015625 89.40625 -28.140625 C 90.90625 -31.265625 91.914062 -34.523438 92.4375 -37.921875 Z M 107.6875 -34.390625 "/></g></g></g><g fill="#ffffff" fill-opacity="1"><g transform="translate(1521.383521, 903.40331)"><g><path d="M 11.53125 -96.9375 L 46.703125 -96.9375 L 46.703125 -84.03125 L 49.0625 -84.03125 C 51.53125 -89.375 55.046875 -93.316406 59.609375 -95.859375 C 64.171875 -98.398438 69.382812 -99.671875 75.25 -99.671875 C 85.019531 -99.671875 92.898438 -96.476562 98.890625 -90.09375 C 104.878906 -83.707031 108.070312 -74.394531 108.46875 -62.15625 L 92.4375 -59.796875 C 92.4375 -68.785156 90.285156 -75.265625 85.984375 -79.234375 C 81.691406 -83.210938 76.414062 -85.203125 70.15625 -85.203125 C 66.125 -85.203125 62.640625 -84.421875 59.703125 -82.859375 C 56.773438 -81.296875 54.332031 -79.144531 52.375 -76.40625 C 50.425781 -73.675781 48.992188 -70.488281 48.078125 -66.84375 C 47.160156 -63.195312 46.703125 -59.285156 46.703125 -55.109375 L 46.703125 -14.078125 L 71.328125 -14.078125 L 71.328125 0 L 9.1875 0 L 9.1875 -14.078125 L 31.46875 -14.078125 L 31.46875 -82.859375 L 11.53125 -82.859375 Z M 11.53125 -96.9375 "/></g></g></g><g fill="#ffffff" fill-opacity="1"><g transform="translate(1640.993686, 903.40331)"><g><path d="M 108.46875 -47.296875 C 108.46875 -39.210938 107.128906 -32.078125 104.453125 -25.890625 C 101.785156 -19.703125 98.238281 -14.488281 93.8125 -10.25 C 89.382812 -6.019531 84.203125 -2.796875 78.265625 -0.578125 C 72.335938 1.628906 66.179688 2.734375 59.796875 2.734375 C 53.285156 2.734375 47.097656 1.628906 41.234375 -0.578125 C 35.367188 -2.796875 30.222656 -6.019531 25.796875 -10.25 C 21.367188 -14.488281 17.816406 -19.703125 15.140625 -25.890625 C 12.472656 -32.078125 11.140625 -39.210938 11.140625 -47.296875 L 11.140625 -49.640625 C 11.140625 -57.585938 12.472656 -64.65625 15.140625 -70.84375 C 17.816406 -77.03125 21.398438 -82.273438 25.890625 -86.578125 C 30.390625 -90.878906 35.570312 -94.132812 41.4375 -96.34375 C 47.300781 -98.5625 53.421875 -99.671875 59.796875 -99.671875 C 66.179688 -99.671875 72.304688 -98.5625 78.171875 -96.34375 C 84.035156 -94.132812 89.210938 -90.878906 93.703125 -86.578125 C 98.203125 -82.273438 101.785156 -77.03125 104.453125 -70.84375 C 107.128906 -64.65625 108.46875 -57.585938 108.46875 -49.640625 Z M 59.796875 -11.71875 C 64.492188 -11.71875 68.828125 -12.53125 72.796875 -14.15625 C 76.773438 -15.789062 80.257812 -18.171875 83.25 -21.296875 C 86.25 -24.429688 88.59375 -28.179688 90.28125 -32.546875 C 91.976562 -36.910156 92.828125 -41.828125 92.828125 -47.296875 L 92.828125 -49.640625 C 92.828125 -54.847656 91.976562 -59.632812 90.28125 -64 C 88.59375 -68.363281 86.25 -72.109375 83.25 -75.234375 C 80.257812 -78.367188 76.742188 -80.8125 72.703125 -82.5625 C 68.660156 -84.320312 64.359375 -85.203125 59.796875 -85.203125 C 55.242188 -85.203125 50.945312 -84.320312 46.90625 -82.5625 C 42.863281 -80.8125 39.34375 -78.367188 36.34375 -75.234375 C 33.351562 -72.109375 31.007812 -68.363281 29.3125 -64 C 27.625 -59.632812 26.78125 -54.847656 26.78125 -49.640625 L 26.78125 -47.296875 C 26.78125 -41.828125 27.625 -36.910156 29.3125 -32.546875 C 31.007812 -28.179688 33.351562 -24.429688 36.34375 -21.296875 C 39.34375 -18.171875 42.828125 -15.789062 46.796875 -14.15625 C 50.773438 -12.53125 55.109375 -11.71875 59.796875 -11.71875 Z M 59.796875 -11.71875 "/></g></g></g><g fill="#ffffff" fill-opacity="1"><g transform="translate(1760.603851, 903.40331)"><g><path d="M 28.734375 0 L 13.484375 0 L 13.484375 -136.8125 L 28.734375 -136.8125 L 28.734375 -81.6875 L 31.078125 -81.6875 C 34.460938 -87.550781 39.148438 -92.015625 45.140625 -95.078125 C 51.140625 -98.140625 57.65625 -99.671875 64.6875 -99.671875 C 70.6875 -99.671875 76.351562 -98.5625 81.6875 -96.34375 C 87.03125 -94.132812 91.753906 -90.941406 95.859375 -86.765625 C 99.960938 -82.597656 103.21875 -77.453125 105.625 -71.328125 C 108.039062 -65.210938 109.25 -58.242188 109.25 -50.421875 L 109.25 -46.515625 C 109.25 -38.566406 108.078125 -31.53125 105.734375 -25.40625 C 103.390625 -19.28125 100.164062 -14.132812 96.0625 -9.96875 C 91.957031 -5.800781 87.164062 -2.640625 81.6875 -0.484375 C 76.21875 1.660156 70.421875 2.734375 64.296875 2.734375 C 61.171875 2.734375 57.976562 2.375 54.71875 1.65625 C 51.46875 0.945312 48.375 -0.15625 45.4375 -1.65625 C 42.507812 -3.15625 39.804688 -4.976562 37.328125 -7.125 C 34.847656 -9.28125 32.765625 -11.859375 31.078125 -14.859375 L 28.734375 -14.859375 Z M 61.171875 -11.71875 C 65.859375 -11.71875 70.15625 -12.53125 74.0625 -14.15625 C 77.976562 -15.789062 81.398438 -18.109375 84.328125 -21.109375 C 87.265625 -24.109375 89.546875 -27.753906 91.171875 -32.046875 C 92.796875 -36.347656 93.609375 -41.171875 93.609375 -46.515625 L 93.609375 -50.421875 C 93.609375 -55.628906 92.796875 -60.347656 91.171875 -64.578125 C 89.546875 -68.816406 87.265625 -72.46875 84.328125 -75.53125 C 81.398438 -78.59375 77.945312 -80.96875 73.96875 -82.65625 C 70 -84.351562 65.734375 -85.203125 61.171875 -85.203125 C 56.609375 -85.203125 52.375 -84.320312 48.46875 -82.5625 C 44.5625 -80.8125 41.140625 -78.367188 38.203125 -75.234375 C 35.273438 -72.109375 32.960938 -68.363281 31.265625 -64 C 29.578125 -59.632812 28.734375 -54.847656 28.734375 -49.640625 L 28.734375 -47.296875 C 28.734375 -41.953125 29.578125 -37.097656 31.265625 -32.734375 C 32.960938 -28.367188 35.273438 -24.625 38.203125 -21.5 C 41.140625 -18.375 44.5625 -15.960938 48.46875 -14.265625 C 52.375 -12.566406 56.609375 -11.71875 61.171875 -11.71875 Z M 61.171875 -11.71875 "/></g></g></g><g fill="#ffffff" fill-opacity="1"><g transform="translate(1880.214016, 903.40331)"><g><path d="M 86.1875 -96.9375 L 101.4375 -96.9375 L 101.4375 0 L 86.1875 0 L 86.1875 -17.59375 L 83.84375 -17.59375 C 80.71875 -11.332031 76.613281 -6.378906 71.53125 -2.734375 C 66.445312 0.910156 60 2.734375 52.1875 2.734375 C 46.84375 2.734375 41.921875 1.851562 37.421875 0.09375 C 32.929688 -1.664062 29.085938 -4.300781 25.890625 -7.8125 C 22.703125 -11.332031 20.226562 -15.695312 18.46875 -20.90625 C 16.707031 -26.125 15.828125 -32.1875 15.828125 -39.09375 L 15.828125 -96.9375 L 31.078125 -96.9375 L 31.078125 -41.046875 C 31.078125 -30.878906 33.160156 -23.445312 37.328125 -18.75 C 41.492188 -14.0625 47.878906 -11.71875 56.484375 -11.71875 C 65.734375 -11.71875 72.992188 -14.878906 78.265625 -21.203125 C 83.546875 -27.523438 86.1875 -35.960938 86.1875 -46.515625 Z M 86.1875 -96.9375 "/></g></g></g><g fill="#ffffff" fill-opacity="1"><g transform="translate(1999.824181, 903.40331)"><g><path d="M 37.140625 -71.921875 C 37.140625 -67.234375 39.125 -63.648438 43.09375 -61.171875 C 47.070312 -58.691406 54.335938 -57.0625 64.890625 -56.28125 C 76.222656 -55.375 84.851562 -52.671875 90.78125 -48.171875 C 96.707031 -43.679688 99.671875 -37.132812 99.671875 -28.53125 L 99.671875 -27.359375 C 99.671875 -22.671875 98.722656 -18.46875 96.828125 -14.75 C 94.941406 -11.039062 92.335938 -7.882812 89.015625 -5.28125 C 85.691406 -2.675781 81.648438 -0.691406 76.890625 0.671875 C 72.140625 2.046875 66.96875 2.734375 61.375 2.734375 C 53.8125 2.734375 47.328125 1.722656 41.921875 -0.296875 C 36.515625 -2.316406 32.019531 -4.988281 28.4375 -8.3125 C 24.851562 -11.632812 22.148438 -15.410156 20.328125 -19.640625 C 18.503906 -23.878906 17.460938 -28.144531 17.203125 -32.4375 L 31.65625 -35.953125 C 32.3125 -28.535156 35.175781 -22.578125 40.25 -18.078125 C 45.332031 -13.578125 52.109375 -11.328125 60.578125 -11.328125 C 67.742188 -11.328125 73.507812 -12.726562 77.875 -15.53125 C 82.238281 -18.332031 84.421875 -22.273438 84.421875 -27.359375 C 84.421875 -32.828125 82.269531 -36.734375 77.96875 -39.078125 C 73.675781 -41.429688 66.707031 -42.929688 57.0625 -43.578125 C 45.863281 -44.359375 37.265625 -46.960938 31.265625 -51.390625 C 25.273438 -55.828125 22.28125 -62.28125 22.28125 -70.75 L 22.28125 -71.921875 C 22.28125 -76.484375 23.253906 -80.488281 25.203125 -83.9375 C 27.160156 -87.394531 29.800781 -90.296875 33.125 -92.640625 C 36.445312 -94.984375 40.191406 -96.738281 44.359375 -97.90625 C 48.535156 -99.082031 52.898438 -99.671875 57.453125 -99.671875 C 63.835938 -99.671875 69.441406 -98.789062 74.265625 -97.03125 C 79.085938 -95.269531 83.125 -92.988281 86.375 -90.1875 C 89.632812 -87.394531 92.144531 -84.171875 93.90625 -80.515625 C 95.664062 -76.867188 96.804688 -73.222656 97.328125 -69.578125 L 82.859375 -66.0625 C 82.210938 -72.3125 79.707031 -77.195312 75.34375 -80.71875 C 70.976562 -84.238281 65.273438 -86 58.234375 -86 C 55.503906 -86 52.867188 -85.703125 50.328125 -85.109375 C 47.785156 -84.523438 45.535156 -83.644531 43.578125 -82.46875 C 41.628906 -81.300781 40.066406 -79.835938 38.890625 -78.078125 C 37.722656 -76.316406 37.140625 -74.265625 37.140625 -71.921875 Z M 37.140625 -71.921875 "/></g></g></g><g fill="#ffffff" fill-opacity="1"><g transform="translate(2119.434346, 903.40331)"><g><path d="M 14.265625 9.375 L 105.34375 9.375 L 105.34375 23.453125 L 14.265625 23.453125 Z M 14.265625 9.375 "/></g></g></g><g fill="#ffffff" fill-opacity="1"><g transform="translate(2239.044511, 903.40331)"><g><path d="M 32.25 0 L 17 0 L 17 -96.9375 L 32.25 -96.9375 L 32.25 -80.515625 L 34.59375 -80.515625 C 40.582031 -93.285156 51.003906 -99.671875 65.859375 -99.671875 C 77.066406 -99.671875 85.992188 -96.1875 92.640625 -89.21875 C 99.285156 -82.25 102.609375 -71.789062 102.609375 -57.84375 L 102.609375 0 L 87.359375 0 L 87.359375 -54.71875 C 87.359375 -64.882812 85.078125 -72.503906 80.515625 -77.578125 C 75.960938 -82.660156 69.773438 -85.203125 61.953125 -85.203125 C 52.703125 -85.203125 45.4375 -82.039062 40.15625 -75.71875 C 34.882812 -69.40625 32.25 -60.972656 32.25 -50.421875 Z M 32.25 0 "/></g></g></g><g fill="#ffffff" fill-opacity="1"><g transform="translate(2358.654676, 903.40331)"><g><path d="M 47.09375 -125.859375 C 47.09375 -129.640625 48.425781 -132.863281 51.09375 -135.53125 C 53.769531 -138.207031 57 -139.546875 60.78125 -139.546875 C 64.5625 -139.546875 67.785156 -138.207031 70.453125 -135.53125 C 73.128906 -132.863281 74.46875 -129.640625 74.46875 -125.859375 C 74.46875 -122.078125 73.128906 -118.851562 70.453125 -116.1875 C 67.785156 -113.519531 64.5625 -112.1875 60.78125 -112.1875 C 57 -112.1875 53.769531 -113.519531 51.09375 -116.1875 C 48.425781 -118.851562 47.09375 -122.078125 47.09375 -125.859375 Z M 19.34375 -14.078125 L 53.359375 -14.078125 L 53.359375 -82.859375 L 22.859375 -82.859375 L 22.859375 -96.9375 L 68.59375 -96.9375 L 68.59375 -14.078125 L 100.265625 -14.078125 L 100.265625 0 L 19.34375 0 Z M 19.34375 -14.078125 "/></g></g></g><g fill="#ffffff" fill-opacity="1"><g transform="translate(2478.264841, 903.40331)"><g><path d="M 13.6875 -96.9375 L 44.171875 -96.9375 L 44.171875 -136.8125 L 59.40625 -136.8125 L 59.40625 -96.9375 L 96.9375 -96.9375 L 96.9375 -82.859375 L 59.40625 -82.859375 L 59.40625 -19.9375 C 59.40625 -16.03125 61.164062 -14.078125 64.6875 -14.078125 L 92.25 -14.078125 L 92.25 0 L 59.21875 0 C 54.789062 0 51.175781 -1.429688 48.375 -4.296875 C 45.570312 -7.160156 44.171875 -10.8125 44.171875 -15.25 L 44.171875 -82.859375 L 13.6875 -82.859375 Z M 13.6875 -96.9375 "/></g></g></g><g fill="#ffffff" fill-opacity="1"><g transform="translate(2597.875006, 903.40331)"><g><path d="M 42.015625 -56.671875 L 45.34375 -56.671875 L 82.28125 -96.9375 L 101.046875 -96.9375 L 101.046875 -95.765625 L 60.78125 -51.40625 L 60.78125 -47.875 L 105.734375 -1.171875 L 105.734375 0 L 86.96875 0 L 45.734375 -42.609375 L 42.015625 -42.609375 L 42.015625 0 L 26.78125 0 L 26.78125 -136.8125 L 42.015625 -136.8125 Z M 42.015625 -56.671875 "/></g></g></g><g fill="#ffffff" fill-opacity="1"><g transform="translate(2717.485171, 903.40331)"><g><path d="M 42.015625 -56.671875 L 45.34375 -56.671875 L 82.28125 -96.9375 L 101.046875 -96.9375 L 101.046875 -95.765625 L 60.78125 -51.40625 L 60.78125 -47.875 L 105.734375 -1.171875 L 105.734375 0 L 86.96875 0 L 45.734375 -42.609375 L 42.015625 -42.609375 L 42.015625 0 L 26.78125 0 L 26.78125 -136.8125 L 42.015625 -136.8125 Z M 42.015625 -56.671875 "/></g></g></g><g fill="#ffffff" fill-opacity="1"><g transform="translate(2837.095336, 903.40331)"><g><path d="M 11.53125 -96.9375 L 46.703125 -96.9375 L 46.703125 -84.03125 L 49.0625 -84.03125 C 51.53125 -89.375 55.046875 -93.316406 59.609375 -95.859375 C 64.171875 -98.398438 69.382812 -99.671875 75.25 -99.671875 C 85.019531 -99.671875 92.898438 -96.476562 98.890625 -90.09375 C 104.878906 -83.707031 108.070312 -74.394531 108.46875 -62.15625 L 92.4375 -59.796875 C 92.4375 -68.785156 90.285156 -75.265625 85.984375 -79.234375 C 81.691406 -83.210938 76.414062 -85.203125 70.15625 -85.203125 C 66.125 -85.203125 62.640625 -84.421875 59.703125 -82.859375 C 56.773438 -81.296875 54.332031 -79.144531 52.375 -76.40625 C 50.425781 -73.675781 48.992188 -70.488281 48.078125 -66.84375 C 47.160156 -63.195312 46.703125 -59.285156 46.703125 -55.109375 L 46.703125 -14.078125 L 71.328125 -14.078125 L 71.328125 0 L 9.1875 0 L 9.1875 -14.078125 L 31.46875 -14.078125 L 31.46875 -82.859375 L 11.53125 -82.859375 Z M 11.53125 -96.9375 "/></g></g></g></svg>